<?xml version="1.0" encoding="UTF-8" standalone="no"?>
<svg
   xmlns:dc="http://purl.org/dc/elements/1.1/"
   xmlns:cc="http://creativecommons.org/ns#"
   xmlns:rdf="http://www.w3.org/1999/02/22-rdf-syntax-ns#"
   xmlns:svg="http://www.w3.org/2000/svg"
   xmlns="http://www.w3.org/2000/svg"
   xmlns:sodipodi="http://sodipodi.sourceforge.net/DTD/sodipodi-0.dtd"
   xmlns:inkscape="http://www.inkscape.org/namespaces/inkscape"
   version="1.1"
   id="Your_Icon"
   x="0px"
   y="0px"
   width="100px"
   height="100px"
   viewBox="0 0 100 100"
   enable-background="new 0 0 100 100"
   xml:space="preserve"
   inkscape:version="0.48.2 r9819"
   sodipodi:docname="highlink.svg"><metadata
   id="metadata19"><rdf:RDF><cc:Work
       rdf:about=""><dc:format>image/svg+xml</dc:format><dc:type
         rdf:resource="http://purl.org/dc/dcmitype/StillImage" /><dc:title></dc:title></cc:Work></rdf:RDF></metadata><defs
   id="defs17" /><sodipodi:namedview
   pagecolor="#ffffff"
   bordercolor="#666666"
   borderopacity="1"
   objecttolerance="10"
   gridtolerance="10"
   guidetolerance="10"
   inkscape:pageopacity="0"
   inkscape:pageshadow="2"
   inkscape:window-width="1290"
   inkscape:window-height="878"
   id="namedview15"
   showgrid="false"
   inkscape:zoom="5"
   inkscape:cx="36.741748"
   inkscape:cy="43.795705"
   inkscape:window-x="0"
   inkscape:window-y="0"
   inkscape:window-maximized="0"
   inkscape:current-layer="Your_Icon" />
   <desc>An icon design for fragmentions by Kevin Marks, licence Creative Commons – Attribution (CC BY 3.0). Based on: 
   Link designed by Vittorio Maria Vecchi from the Noun Project http://thenounproject.com/term/link/24580/
   and:
   Redaction designed by Dan Hetteix from the Noun Project http://thenounproject.com/term/redaction/28201/
   </desc>
<polygon
   points="36.777,67.919 6.272,67.919 6.272,52.454 52.5,52.454 "
   id="polygon3"
   style="fill:#ffd700" />

<path
   d="M93.729,65.434c-2.196,0-3.174-1.917-3.821-3.185c-0.212-0.415-0.555-1.087-0.779-1.295c-0.226,0.208-0.569,0.88-0.78,1.295  c-0.647,1.268-1.626,3.185-3.82,3.185c-2.195,0-3.173-1.917-3.82-3.185c-0.211-0.415-0.553-1.085-0.777-1.295  c-0.226,0.21-0.568,0.88-0.779,1.295c-0.646,1.268-1.625,3.185-3.819,3.185c-2.195,0-3.173-1.917-3.82-3.185  c-0.211-0.415-0.552-1.084-0.777-1.294c-0.225,0.21-0.566,0.879-0.777,1.294c-0.646,1.268-1.624,3.185-3.818,3.185  s-3.172-1.917-3.818-3.185c-0.23-0.453-0.616-1.209-0.837-1.339c0.014,0.007,0.044,0.017,0.06,0.017v-3.414  c2.194,0,3.172,1.917,3.818,3.186c0.211,0.413,0.552,1.083,0.777,1.293c0.225-0.21,0.566-0.88,0.777-1.293  c0.646-1.269,1.624-3.186,3.818-3.186c2.195,0,3.172,1.917,3.819,3.185c0.212,0.414,0.554,1.085,0.778,1.295  c0.225-0.21,0.567-0.881,0.779-1.295c0.646-1.268,1.624-3.185,3.819-3.185c2.194,0,3.172,1.917,3.819,3.185  c0.212,0.415,0.554,1.085,0.778,1.295c0.226-0.209,0.568-0.881,0.779-1.295c0.647-1.269,1.625-3.185,3.821-3.185  c2.195,0,3.172,1.916,3.82,3.185c0.23,0.452,0.617,1.209,0.837,1.339c-0.014-0.008-0.043-0.017-0.058-0.017L93.729,65.434z"
   id="path7" />
<path
   d="M38.459,23.965c-2.195,0-3.173-1.916-3.82-3.184c-0.212-0.415-0.555-1.087-0.78-1.295c-0.225,0.208-0.568,0.88-0.78,1.295  c-0.646,1.268-1.625,3.184-3.82,3.184c-2.194,0-3.172-1.916-3.818-3.184c-0.212-0.415-0.554-1.085-0.779-1.295  c-0.225,0.21-0.566,0.88-0.778,1.295c-0.647,1.268-1.625,3.184-3.82,3.184c-2.194,0-3.172-1.916-3.818-3.185  c-0.211-0.414-0.554-1.083-0.778-1.293c-0.226,0.21-0.566,0.879-0.777,1.293c-0.647,1.269-1.624,3.185-3.819,3.185  c-2.194,0-3.171-1.916-3.818-3.185c-0.23-0.452-0.616-1.208-0.836-1.339c0.014,0.008,0.044,0.017,0.06,0.018l-0.001-3.414  c2.194,0,3.173,1.917,3.819,3.185c0.211,0.414,0.552,1.083,0.776,1.293c0.226-0.21,0.566-0.879,0.777-1.293  c0.647-1.268,1.625-3.185,3.819-3.185s3.172,1.917,3.818,3.185c0.212,0.415,0.554,1.085,0.778,1.294  c0.226-0.209,0.568-0.879,0.779-1.294c0.647-1.269,1.625-3.185,3.82-3.185c2.194,0,3.172,1.917,3.818,3.185  c0.212,0.415,0.554,1.085,0.779,1.294c0.226-0.209,0.567-0.879,0.779-1.295c0.647-1.268,1.625-3.184,3.82-3.184  s3.174,1.916,3.82,3.184c0.231,0.453,0.618,1.21,0.838,1.34c-0.013-0.008-0.043-0.017-0.059-0.017L38.459,23.965z"
   id="path9" />
<rect
   x="6.272"
   y="32.008"
   width="87.457"
   height="15.569"
   id="rect11"
   style="fill:#ffd700" />
<rect
   x="43.686"
   y="12.221"
   width="50.044"
   height="15.569"
   id="rect13"
   style="fill:#ffd700" />
<path
   id="_153574344"
   d="m 48.017825,41.569 -23.86706,25.44789 c -1.94207,2.07137 3.88539,8.28614 5.82809,6.21477 l 23.86706,-25.44855 c 1.94269,-2.07203 -3.88602,-8.28548 -5.82809,-6.21411 z"
   inkscape:connector-curvature="0" /><path
   id="_153573824"
   d="m 8.819385,75.08024 c -4.53275,4.83298 9.06612,19.33257 13.59887,14.4996 l 17.74234,-18.91816 c 1.3538,-1.44413 1.0895,-3.74889 -0.0659,-6.14383 l -17.60801,18.7756 c -2.59005,2.76161 -10.36084,-5.52387 -7.77078,-8.28548 l 17.60863,-18.7756 c -2.24616,-1.23261 -4.40838,-1.51441 -5.76217,-0.071 l -17.74296,18.91882 0,0 z"
   inkscape:connector-curvature="0" /><path
   id="_153573440"
   d="m 69.180395,39.72042 c 4.53337,-4.83364 -9.0655,-19.33323 -13.59825,-14.50026 l -17.74296,18.91883 c -1.35317,1.44346 -1.0895,3.74822 0.0665,6.14316 l 17.60802,-18.77494 c 2.59005,-2.76227 10.36022,5.52387 7.77016,8.28548 l -17.60802,18.7756 c 2.24617,1.23195 4.40838,1.51375 5.76218,0.0703 l 17.74233,-18.91815 z"
   inkscape:connector-curvature="0" /></svg>