<?xml version="1.0" encoding="utf-8"?>
<!-- Generator: Adobe Illustrator 19.2.1, SVG Export Plug-In . SVG Version: 6.00 Build 0)  -->
<svg version="1.1" id="Layer_1" xmlns="http://www.w3.org/2000/svg" xmlns:xlink="http://www.w3.org/1999/xlink" x="0px" y="0px"
	 viewBox="0 0 487 182.8" style="enable-background:new 0 0 487 182.8;" xml:space="preserve">
<style type="text/css">
	.st0{fill:#FF5C00;}
	.st1{clip-path:url(#SVGID_2_);fill:#FF0000;}
	.st2{clip-path:url(#SVGID_4_);fill:#FF0000;}
	.st3{fill:#FFB100;}
	.st4{fill:none;}
</style>
<g>
	<g>
		<g>
			<polygon class="st0" points="163.8,33 222.9,159.2 241.5,119.3 201.3,33 			"/>
			<polygon class="st0" points="332.9,33 282,33 214.9,33 253.7,116.2 273.8,159.2 			"/>
		</g>
		<g>
			<g>
				<defs>
					<rect id="SVGID_1_" x="33" y="33" width="117.8" height="33"/>
				</defs>
				<use xlink:href="#SVGID_1_"  style="overflow:visible;fill:#FF0000;"/>
				<clipPath id="SVGID_2_">
					<use xlink:href="#SVGID_1_"  style="overflow:visible;"/>
				</clipPath>
				<rect x="31.4" y="31.4" class="st1" width="120.9" height="36.1"/>
			</g>
			<g>
				<defs>
					<rect id="SVGID_3_" x="33" y="78" width="117.8" height="71.8"/>
				</defs>
				<use xlink:href="#SVGID_3_"  style="overflow:visible;fill:#FF0000;"/>
				<clipPath id="SVGID_4_">
					<use xlink:href="#SVGID_3_"  style="overflow:visible;"/>
				</clipPath>
				<rect x="31.4" y="76.5" class="st2" width="120.9" height="74.9"/>
			</g>
		</g>
		<path class="st3" d="M453.1,97.9c-3.1,32.4-30.3,57.8-63.5,57.8c-35.2,0-63.8-28.6-63.8-63.8S354.3,28,389.6,28
			c33.1,0,60.3,25.2,63.5,57.5h-63.5c-3.4,0-6.2,2.8-6.2,6.2c0,3.4,2.8,6.2,6.2,6.2H453.1z"/>
	</g>
	<rect class="st4" width="487" height="182.8"/>
</g>
</svg>
