<?xml version="1.0" encoding="utf-8"?>
<!-- Generator: Adobe Illustrator 16.0.0, SVG Export Plug-In . SVG Version: 6.00 Build 0)  -->
<!DOCTYPE svg PUBLIC "-//W3C//DTD SVG 1.1//EN" "http://www.w3.org/Graphics/SVG/1.1/DTD/svg11.dtd">
<svg version="1.1" id="Layer_1" xmlns="http://www.w3.org/2000/svg" xmlns:xlink="http://www.w3.org/1999/xlink" x="0px" y="0px"
	 width="250.527px" height="118.421px" viewBox="0 0 250.527 118.421" enable-background="new 0 0 250.527 118.421"
	 xml:space="preserve">
<g>
	<path d="M17.912,91.228h3.708v10.205h-3.708V91.228z"/>
	<path d="M29.787,91.228h3.56l3.329,5.657h0.108c-0.148-0.853-0.312-1.732-0.312-2.599v-3.059h3.547v10.205h-3.547l-3.262-5.359
		h-0.108c0.122,0.703,0.23,1.367,0.23,2.043v3.316h-3.546V91.228z"/>
	<path d="M48.175,91.228h3.776c3.424,0,6.05,1.502,6.05,5.252c0,3.031-2.139,4.953-5.13,4.953h-4.696V91.228z M51.883,98.375h0.23
		c1.231,0,2.179-0.568,2.179-1.908c0-1.436-0.825-2.044-2.179-2.044h-0.23V98.375z"/>
	<path d="M65.873,91.228h3.708v10.205h-3.708V91.228z"/>
	<path d="M77.748,91.228h6.862v2.788h-3.127v0.975h2.855v2.653h-2.855v1.001h3.234v2.788h-6.97V91.228z"/>
	<path d="M107.86,91.228l1.286,6.091h0.081c0.067-0.623,0.149-1.272,0.312-1.882l1.083-4.209h2.842l1.395,6.091h0.081
		c0.054-0.596,0.122-1.218,0.257-1.8l1.028-4.291h3.857l-3.6,10.205h-3.235l-1.164-5.549h-0.121
		c-0.041,0.527-0.068,1.042-0.189,1.543l-1.029,4.006h-3.153l-3.573-10.205H107.86z"/>
	<path d="M127.347,91.228h6.862v2.788h-3.127v0.975h2.855v2.653h-2.855v1.001h3.234v2.788h-6.97V91.228z"/>
	<path d="M142.323,91.228h4.317c1.976,0,3.992,0.474,3.992,2.828c0,0.895-0.446,1.773-1.34,2.059v0.08
		c1.11,0.393,1.813,1.205,1.813,2.423c0,2.099-1.948,2.815-3.735,2.815h-5.048V91.228z M146.098,95.153
		c0.542,0,1.15-0.054,1.15-0.758c0-0.758-0.689-0.704-1.231-0.704h-0.257v1.462H146.098z M145.76,98.998h0.419
		c0.609,0,1.489-0.014,1.489-0.854c0-0.853-0.947-0.839-1.543-0.839h-0.365V98.998z"/>
	<path d="M178.513,95.37c-0.596-0.555-1.34-1.028-2.18-1.028c-1.109,0-2.017,0.879-2.017,1.989c0,1.124,0.961,1.989,2.071,1.989
		c0.853,0,1.529-0.365,2.125-0.947l-0.108,3.816c-0.596,0.285-1.977,0.406-2.64,0.406c-2.91,0-5.184-2.26-5.184-5.17
		c0-2.978,2.342-5.359,5.333-5.359c0.839,0,1.705,0.148,2.49,0.42L178.513,95.37z"/>
	<path d="M189.334,101.433h-3.925l3.546-10.205h4.101l3.642,10.205h-3.926l-0.338-1.272h-2.802L189.334,101.433z M191.785,97.738
		l-0.434-1.8c-0.108-0.433-0.176-0.88-0.243-1.313h-0.136l-0.677,3.113H191.785z"/>
	<path d="M205.204,91.228h3.817l1.407,5.359h0.095c0.068-0.446,0.136-0.92,0.258-1.354l1.15-4.006h3.775l1.679,10.205h-3.587
		l-0.501-5.59h-0.067c-0.067,0.338-0.136,0.69-0.243,1.016l-1.476,4.574h-2.166l-1.326-4.317c-0.108-0.433-0.203-0.839-0.229-1.272
		h-0.122c-0.027,0.406-0.055,0.826-0.095,1.232l-0.434,4.357h-3.586L205.204,91.228z"/>
	<path d="M225.136,91.228h4.696c2.383,0,4.142,1.219,4.142,3.749c0,2.085-1.299,3.384-3.37,3.384h-1.895v3.072h-3.573V91.228z
		 M228.709,95.789h0.365c0.65,0,1.354-0.107,1.354-0.934c0-0.799-0.758-0.839-1.367-0.839h-0.352V95.789z"/>
</g>
<linearGradient id="SVGID_1_" gradientUnits="userSpaceOnUse" x1="23.2632" y1="47.7271" x2="229.2631" y2="47.7271">
	<stop  offset="0" style="stop-color:#FBB03B"/>
	<stop  offset="0.0088" style="stop-color:#FBAE3A"/>
	<stop  offset="0.1552" style="stop-color:#F78931"/>
	<stop  offset="0.2921" style="stop-color:#F36F2A"/>
	<stop  offset="0.4147" style="stop-color:#F26025"/>
	<stop  offset="0.511" style="stop-color:#F15A24"/>
	<stop  offset="0.6495" style="stop-color:#F15724"/>
	<stop  offset="0.7658" style="stop-color:#F04C24"/>
	<stop  offset="0.8742" style="stop-color:#EF3B24"/>
	<stop  offset="0.977" style="stop-color:#ED2324"/>
	<stop  offset="1" style="stop-color:#ED1C24"/>
</linearGradient>
<rect x="17.263" y="17.395" fill="url(#SVGID_1_)" width="60.666" height="60.666"/>
<linearGradient id="SVGID_2_" gradientUnits="userSpaceOnUse" x1="23.2632" y1="49.7954" x2="229.2634" y2="49.7954">
	<stop  offset="0" style="stop-color:#FBB03B"/>
	<stop  offset="0.0088" style="stop-color:#FBAE3A"/>
	<stop  offset="0.1552" style="stop-color:#F78931"/>
	<stop  offset="0.2921" style="stop-color:#F36F2A"/>
	<stop  offset="0.4147" style="stop-color:#F26025"/>
	<stop  offset="0.511" style="stop-color:#F15A24"/>
	<stop  offset="0.6495" style="stop-color:#F15724"/>
	<stop  offset="0.7658" style="stop-color:#F04C24"/>
	<stop  offset="0.8742" style="stop-color:#EF3B24"/>
	<stop  offset="0.977" style="stop-color:#ED2324"/>
	<stop  offset="1" style="stop-color:#ED1C24"/>
</linearGradient>
<polygon fill="url(#SVGID_2_)" points="127.724,82.197 86.715,17.395 168.733,17.395 "/>
<linearGradient id="SVGID_3_" gradientUnits="userSpaceOnUse" x1="23.2632" y1="47.9067" x2="229.2631" y2="47.9067">
	<stop  offset="0" style="stop-color:#FBB03B"/>
	<stop  offset="0.0088" style="stop-color:#FBAE3A"/>
	<stop  offset="0.1552" style="stop-color:#F78931"/>
	<stop  offset="0.2921" style="stop-color:#F36F2A"/>
	<stop  offset="0.4147" style="stop-color:#F26025"/>
	<stop  offset="0.511" style="stop-color:#F15A24"/>
	<stop  offset="0.6495" style="stop-color:#F15724"/>
	<stop  offset="0.7658" style="stop-color:#F04C24"/>
	<stop  offset="0.8742" style="stop-color:#EF3B24"/>
	<stop  offset="0.977" style="stop-color:#ED2324"/>
	<stop  offset="1" style="stop-color:#ED1C24"/>
</linearGradient>
<circle fill="url(#SVGID_3_)" cx="203.111" cy="47.907" r="31.697"/>
<g>
	<circle fill="#FFFFFF" stroke="#FFFFFF" stroke-width="2" cx="220.263" cy="31.562" r="1.667"/>
</g>
<path fill="none" stroke="#FFFFFF" stroke-width="2" d="M231.787,31.559h-13.03c-4.137,0-7.492,3.354-7.492,7.493
	s3.355,7.492,7.492,7.492h18.686"/>
<g>
	<circle fill="#FFFFFF" stroke="#FFFFFF" stroke-width="2" cx="27.347" cy="31.562" r="1.667"/>
</g>
<path fill="none" stroke="#FFFFFF" stroke-width="2" d="M15.824,31.559h13.03c4.137,0,7.492,3.354,7.492,7.493
	s-3.355,7.492-7.492,7.492H10.168"/>
<g>
	<g>
		<circle fill="#FFFFFF" stroke="#FFFFFF" stroke-width="2" cx="117.822" cy="27.71" r="1.667"/>
	</g>
	<line fill="none" stroke="#FFFFFF" stroke-width="2" x1="117.822" y1="27.364" x2="117.822" y2="17.394"/>
</g>
<g>
	<g>
		<circle fill="#FFFFFF" stroke="#FFFFFF" stroke-width="2" cx="138.453" cy="27.71" r="1.667"/>
	</g>
	<line fill="none" stroke="#FFFFFF" stroke-width="2" x1="138.453" y1="27.364" x2="138.453" y2="17.394"/>
</g>
</svg>
