<svg width="135" height="134" viewBox="0 0 135 134" xmlns="http://www.w3.org/2000/svg"><title>IndieWebCamp Square</title><desc>Created with Sketch.</desc><defs><linearGradient x1="9.891%" y1="49.999%" x2="349.455%" y2="49.999%" id="a"><stop stop-color="#FBB03B" offset="0%"/><stop stop-color="#FBAE3A" offset=".88%"/><stop stop-color="#F78931" offset="15.52%"/><stop stop-color="#F36F2A" offset="29.21%"/><stop stop-color="#F26025" offset="41.47%"/><stop stop-color="#F15A24" offset="51.1%"/><stop stop-color="#F15724" offset="64.95%"/><stop stop-color="#F04C24" offset="76.58%"/><stop stop-color="#EF3B24" offset="87.42%"/><stop stop-color="#ED2324" offset="97.7%"/><stop stop-color="#ED1C24" offset="100%"/></linearGradient><linearGradient x1="-233.698%" y1="50%" x2="91.253%" y2="50%" id="b"><stop stop-color="#FBB03B" offset="0%"/><stop stop-color="#FBAE3A" offset=".88%"/><stop stop-color="#F78931" offset="15.52%"/><stop stop-color="#F36F2A" offset="29.21%"/><stop stop-color="#F26025" offset="41.47%"/><stop stop-color="#F15A24" offset="51.1%"/><stop stop-color="#F15724" offset="64.95%"/><stop stop-color="#F04C24" offset="76.58%"/><stop stop-color="#EF3B24" offset="87.42%"/><stop stop-color="#ED2324" offset="97.7%"/><stop stop-color="#ED1C24" offset="100%"/></linearGradient><linearGradient x1="-77.363%" y1="49.999%" x2="173.801%" y2="49.999%" id="c"><stop stop-color="#FBB03B" offset="0%"/><stop stop-color="#FBAE3A" offset=".88%"/><stop stop-color="#F78931" offset="15.52%"/><stop stop-color="#F36F2A" offset="29.21%"/><stop stop-color="#F26025" offset="41.47%"/><stop stop-color="#F15A24" offset="51.1%"/><stop stop-color="#F15724" offset="64.95%"/><stop stop-color="#F04C24" offset="76.58%"/><stop stop-color="#EF3B24" offset="87.42%"/><stop stop-color="#ED2324" offset="97.7%"/><stop stop-color="#ED1C24" offset="100%"/></linearGradient></defs><g fill="none" fill-rule="evenodd"><g stroke="#fff"><g transform="translate(0 3)"><path stroke-width="5" fill="url(#a)" d="M7.263.395H67.93V61.06H7.262z"/><circle id="Oval" stroke-width="2" fill="#fff" cx="17.347" cy="14.562" r="1.667"/><path d="M5.824 14.56h13.03c4.137 0 7.492 3.353 7.492 7.492 0 4.14-3.355 7.492-7.492 7.492H.168" id="Shape" stroke-width="2"/></g><g transform="translate(0 3) translate(68 64)"><circle id="Oval" stroke-width="5" fill="url(#b)" cx="32.111" cy="31.907" r="31.697"/><circle id="Oval" stroke-width="2" fill="#fff" cx="49.263" cy="15.562" r="1.667"/><path d="M60.787 15.56h-13.03c-4.137 0-7.492 3.353-7.492 7.492 0 4.14 3.355 7.492 7.492 7.492h18.686" id="Shape" stroke-width="2"/></g><g><path d="M41.724 65.197L.714.395h82.02l-41.01 64.802z" id="Shape" stroke-width="5" fill="url(#c)" transform="translate(0 3) translate(27 31)"/><g id="Group" transform="translate(57 34)" stroke-width="2"><circle id="Oval" fill="#fff" cx="1.822" cy="10.71" r="1.667"/><path d="M1.822 10.364V.394" id="Shape"/></g><g transform="translate(77 34)" stroke-width="2"><circle fill="#fff" cx="2.453" cy="10.71" r="1.667"/><path d="M2.453 10.364V.394"/></g></g></g></g></svg>