<svg xmlns:rdf="http://www.w3.org/1999/02/22-rdf-syntax-ns#" xmlns="http://www.w3.org/2000/svg" enable-background="new 0 0 250.527 118.421" xml:space="preserve" height="60" viewBox="0 0 60 60" width="60" version="1.1" y="0px" x="0px" xmlns:cc="http://creativecommons.org/ns#" xmlns:dc="http://purl.org/dc/elements/1.1/"><rect style="fill:#f15a24;" height="60.7" width="60.7" y="-0.00000269" x="0"/><g transform="translate(-5.2630005,-25.395003)"><path d="M17.9,67.2h3.72v10.2h-3.71v-10.2z"/><path d="m29.9,67.2,1.29,6.09h0.081c0.067-0.623,0.149-1.27,0.312-1.88l1.08-4.21h2.84l1.4,6.09h0.081c0.054-0.596,0.122-1.22,0.257-1.8l1.03-4.29h3.86l-3.6,10.2h-3.24l-1.16-5.55h-0.121c-0.041,0.527-0.068,1.04-0.189,1.54l-1.03,4.01h-3.31l-3.59-10.1h3.84z"/><path d="m52.5,71.4c-0.596-0.555-1.34-1.03-2.18-1.03-1.11,0-2.02,0.879-2.02,1.99,0,1.12,0.961,1.99,2.07,1.99,0.853,0,1.53-0.365,2.12-0.947l-0.108,3.82c-0.596,0.285-1.98,0.406-2.64,0.406-2.91,0-5.18-2.26-5.18-5.17,0-2.98,2.34-5.36,5.33-5.36,0.839,0,1.7,0.148,2.49,0.42l0.11,3.88z"/></g><g transform="translate(-17.263,-17.395003)"><circle style="stroke:#ffffff;stroke-width:2;fill:#ffffff;" d="m 29.014,31.562 c 0,0.920659 -0.746341,1.667 -1.667,1.667 -0.920659,0 -1.667,-0.746341 -1.667,-1.667 0,-0.920658 0.746341,-1.667 1.667,-1.667 0.920659,0 1.667,0.746342 1.667,1.667 z" cy="31.6" cx="27.3" r="1.67"/></g><path style="stroke:#ffffff;stroke-width:2;fill:none;" d="m-1.44,14.2h13c4.14,0,7.49,3.35,7.49,7.49s-3.36,7.49-7.49,7.49h-18.7"/><g transform="translate(-97.462215,-18.544264)"><g><circle style="stroke:#ffffff;stroke-width:2;fill:#ffffff;" d="m 119.489,27.709999 c 0,0.920659 -0.74634,1.667 -1.667,1.667 -0.92066,0 -1.667,-0.746341 -1.667,-1.667 0,-0.920659 0.74634,-1.667 1.667,-1.667 0.92066,0 1.667,0.746341 1.667,1.667 z" cx="118" cy="27.7" r="1.67"/></g><line style="stroke:#ffffff;stroke-width:2;fill:none;" y2="17.4" x2="118" y1="27.4" x1="118"/></g><g transform="translate(-77.462215,-18.544264)"><g><circle style="stroke:#ffffff;stroke-width:2;fill:#ffffff;" d="m 119.489,27.709999 c 0,0.920659 -0.74634,1.667 -1.667,1.667 -0.92066,0 -1.667,-0.746341 -1.667,-1.667 0,-0.920659 0.74634,-1.667 1.667,-1.667 0.92066,0 1.667,0.746341 1.667,1.667 z" cy="27.7" cx="118" r="1.67"/></g><line style="stroke:#ffffff;stroke-width:2;fill:none;" y2="17.4" y1="27.4" x2="118" x1="118"/></g><path style="stroke:#ffffff;stroke-width:2;fill:none;" d="m61.4,14.2h-13c-4.14,0-7.49,3.35-7.49,7.49s3.36,7.49,7.49,7.49h18.7"/><g transform="translate(20.737,-17.395003)"><circle style="stroke:#ffffff;stroke-width:2;fill:#ffffff;" d="m 29.014,31.562 c 0,0.920659 -0.746341,1.667 -1.667,1.667 -0.920659,0 -1.667,-0.746341 -1.667,-1.667 0,-0.920658 0.746341,-1.667 1.667,-1.667 0.920659,0 1.667,0.746342 1.667,1.667 z" cy="31.6" cx="27.3" r="1.67"/></g></svg>
