<?xml version="1.0" encoding="UTF-8" standalone="no"?>
<svg
   xmlns:dc="http://purl.org/dc/elements/1.1/"
   xmlns:cc="http://creativecommons.org/ns#"
   xmlns:rdf="http://www.w3.org/1999/02/22-rdf-syntax-ns#"
   xmlns:svg="http://www.w3.org/2000/svg"
   xmlns="http://www.w3.org/2000/svg"
   xmlns:xlink="http://www.w3.org/1999/xlink"
   xmlns:sodipodi="http://sodipodi.sourceforge.net/DTD/sodipodi-0.dtd"
   xmlns:inkscape="http://www.inkscape.org/namespaces/inkscape"
   enable-background="new 0 0 250.527 118.421"
   xml:space="preserve"
   height="60"
   viewBox="0 0 60 60"
   width="60"
   version="1.1"
   y="0px"
   x="0px"
   id="svg3069"
   inkscape:version="0.48.3.1 r9886"
   sodipodi:docname="iwc-icon.svg"><metadata
     id="metadata3113"><rdf:RDF><cc:Work
         rdf:about=""><dc:format>image/svg+xml</dc:format><dc:type
           rdf:resource="http://purl.org/dc/dcmitype/StillImage" /><dc:title></dc:title></cc:Work></rdf:RDF></metadata><defs
     id="defs3111"><linearGradient
       inkscape:collect="always"
       xlink:href="#SVGID_2_"
       id="linearGradient4707"
       x1="0"
       y1="30.349998"
       x2="60.700001"
       y2="30.349998"
       gradientUnits="userSpaceOnUse" /><linearGradient
       id="SVGID_2_"
       gradientUnits="userSpaceOnUse"
       x1="23.263201"
       y1="49.795399"
       x2="229.2634"
       y2="49.795399"><stop
         offset="0"
         style="stop-color:#FBB03B"
         id="stop3342" /><stop
         offset="0.0088"
         style="stop-color:#FBAE3A"
         id="stop3344" /><stop
         offset="0.1552"
         style="stop-color:#F78931"
         id="stop3346" /><stop
         offset="0.2921"
         style="stop-color:#F36F2A"
         id="stop3348" /><stop
         offset="0.4147"
         style="stop-color:#F26025"
         id="stop3350" /><stop
         offset="0.511"
         style="stop-color:#F15A24"
         id="stop3352" /><stop
         offset="0.6495"
         style="stop-color:#F15724"
         id="stop3354" /><stop
         offset="0.7658"
         style="stop-color:#F04C24"
         id="stop3356" /><stop
         offset="0.8742"
         style="stop-color:#EF3B24"
         id="stop3358" /><stop
         offset="0.977"
         style="stop-color:#ED2324"
         id="stop3360" /><stop
         offset="1"
         style="stop-color:#ED1C24"
         id="stop3362" /></linearGradient><linearGradient
       y2="49.795399"
       x2="229.2634"
       y1="49.795399"
       x1="23.263201"
       gradientUnits="userSpaceOnUse"
       id="linearGradient4732"
       xlink:href="#SVGID_2_"
       inkscape:collect="always" /></defs><sodipodi:namedview
     pagecolor="#ffffff"
     bordercolor="#666666"
     borderopacity="1"
     objecttolerance="10"
     gridtolerance="10"
     guidetolerance="10"
     inkscape:pageopacity="0"
     inkscape:pageshadow="2"
     inkscape:window-width="1126"
     inkscape:window-height="846"
     id="namedview3109"
     showgrid="false"
     inkscape:zoom="7.5666667"
     inkscape:cx="33.210857"
     inkscape:cy="35.172187"
     inkscape:window-x="172"
     inkscape:window-y="98"
     inkscape:window-maximized="0"
     inkscape:current-layer="svg3069" /><rect
     style="fill:url(#linearGradient4707);fill-opacity:1.0"
     height="60.7"
     width="60.7"
     y="-0.00000269"
     x="0"
     id="rect3071" /><g
     transform="translate(-5.2630005,-25.395003)"
     id="g3073"><path
       d="M17.9,67.2h3.72v10.2h-3.71v-10.2z"
       id="path3075" /><path
       d="m29.9,67.2,1.29,6.09h0.081c0.067-0.623,0.149-1.27,0.312-1.88l1.08-4.21h2.84l1.4,6.09h0.081c0.054-0.596,0.122-1.22,0.257-1.8l1.03-4.29h3.86l-3.6,10.2h-3.24l-1.16-5.55h-0.121c-0.041,0.527-0.068,1.04-0.189,1.54l-1.03,4.01h-3.31l-3.59-10.1h3.84z"
       id="path3077" /><path
       d="m52.5,71.4c-0.596-0.555-1.34-1.03-2.18-1.03-1.11,0-2.02,0.879-2.02,1.99,0,1.12,0.961,1.99,2.07,1.99,0.853,0,1.53-0.365,2.12-0.947l-0.108,3.82c-0.596,0.285-1.98,0.406-2.64,0.406-2.91,0-5.18-2.26-5.18-5.17,0-2.98,2.34-5.36,5.33-5.36,0.839,0,1.7,0.148,2.49,0.42l0.11,3.88z"
       id="path3079" /></g><g
     transform="translate(-17.263,-17.395003)"
     id="g3081"><circle
       style="stroke:#ffffff;stroke-width:2;fill:#ffffff;"
       d="m 28.969999,31.6 c 0,0.922316 -0.747684,1.67 -1.67,1.67 -0.922315,0 -1.67,-0.747684 -1.67,-1.67 0,-0.922315 0.747685,-1.67 1.67,-1.67 0.922316,0 1.67,0.747685 1.67,1.67 z"
       cy="31.6"
       cx="27.3"
       r="1.67"
       id="circle3083" /></g><path
     style="stroke:#ffffff;stroke-width:2;fill:none;"
     d="m-1.44,14.2h13c4.14,0,7.49,3.35,7.49,7.49s-3.36,7.49-7.49,7.49h-18.7"
     id="path3085" /><g
     transform="translate(-97.462215,-18.544264)"
     id="g3087"><g
       id="g3089"><circle
         style="stroke:#ffffff;stroke-width:2;fill:#ffffff;"
         d="m 119.67,27.700001 c 0,0.922315 -0.74768,1.67 -1.67,1.67 -0.92232,0 -1.67,-0.747685 -1.67,-1.67 0,-0.922316 0.74768,-1.67 1.67,-1.67 0.92232,0 1.67,0.747684 1.67,1.67 z"
         cx="118"
         cy="27.7"
         r="1.67"
         id="circle3091" /></g><line
       style="stroke:#ffffff;stroke-width:2;fill:none;"
       y2="17.4"
       x2="118"
       y1="27.4"
       x1="118"
       id="line3093" /></g><g
     transform="translate(-77.462215,-18.544264)"
     id="g3095"><g
       id="g3097"><circle
         style="stroke:#ffffff;stroke-width:2;fill:#ffffff;"
         d="m 119.67,27.700001 c 0,0.922315 -0.74768,1.67 -1.67,1.67 -0.92232,0 -1.67,-0.747685 -1.67,-1.67 0,-0.922316 0.74768,-1.67 1.67,-1.67 0.92232,0 1.67,0.747684 1.67,1.67 z"
         cy="27.7"
         cx="118"
         r="1.67"
         id="circle3099" /></g><line
       style="stroke:#ffffff;stroke-width:2;fill:none;"
       y2="17.4"
       y1="27.4"
       x2="118"
       x1="118"
       id="line3101" /></g><path
     style="stroke:#ffffff;stroke-width:2;fill:none;"
     d="m61.4,14.2h-13c-4.14,0-7.49,3.35-7.49,7.49s3.36,7.49,7.49,7.49h18.7"
     id="path3103" /><g
     transform="translate(20.737,-17.395003)"
     id="g3105"><circle
       style="stroke:#ffffff;stroke-width:2;fill:#ffffff;"
       d="m 28.969999,31.6 c 0,0.922316 -0.747684,1.67 -1.67,1.67 -0.922315,0 -1.67,-0.747684 -1.67,-1.67 0,-0.922315 0.747685,-1.67 1.67,-1.67 0.922316,0 1.67,0.747685 1.67,1.67 z"
       cy="31.6"
       cx="27.3"
       r="1.67"
       id="circle3107" /></g></svg>