<svg xmlns:rdf="http://www.w3.org/1999/02/22-rdf-syntax-ns#" xmlns="http://www.w3.org/2000/svg" enable-background="new 0 0 100 100" xml:space="preserve" viewBox="0 0 100 100" version="1.1" y="0px" x="0px" xmlns:cc="http://creativecommons.org/ns#" xmlns:dc="http://purl.org/dc/elements/1.1/"><metadata><rdf:RDF><cc:Work rdf:about=""><dc:format>image/svg+xml</dc:format><dc:type rdf:resource="http://purl.org/dc/dcmitype/StillImage"/><dc:title/></cc:Work></rdf:RDF></metadata><desc>An icon design for fragmentions by Kevin Marks, licence Creative Commons – Attribution (CC BY 3.0). Based on: 
   Link designed by Vittorio Maria Vecchi from the Noun Project http://thenounproject.com/term/link/24580/
   and:
   Redaction designed by Dan Hetteix from the Noun Project http://thenounproject.com/term/redaction/28201/
   </desc><path d="M62.601,26.203,31.246,59.634c-2.5513,2.7212,5.1042,10.886,7.6564,8.1644l31.355-33.432c2.5521-2.722-5.1051-10.885-7.6564-8.1635z"/><path d="m11.106,70.227c-5.9547,6.3491,11.91,25.397,17.865,19.048l23.308-24.853c1.7785-1.8972,1.4313-4.9249-0.08657-8.0712l-23.132,24.665c-3.402,3.628-13.611-7.256-10.208-10.884l23.132-24.666c-2.95-1.619-5.791-1.989-7.569-0.093l-23.309,24.854z"/><path fill="#ffd700" d="M90.402,23.774c5.955-6.35-11.909-25.398-17.864-19.049l-23.309,24.854c-1.7777,1.8963-1.4313,4.924,0.08736,8.0703l23.132-24.664c3.4026-3.6288,13.61,7.2567,10.208,10.885l-23.132,24.665c2.9508,1.6184,5.7913,1.9886,7.5698,0.09235l23.308-24.853z"/></svg>
