<?xml version="1.0" encoding="utf-8"?>
<!-- Generator: Adobe Illustrator 15.0.2, SVG Export Plug-In . SVG Version: 6.00 Build 0)  -->
<!DOCTYPE svg PUBLIC "-//W3C//DTD SVG 1.1//EN" "http://www.w3.org/Graphics/SVG/1.1/DTD/svg11.dtd">
<svg version="1.1" id="Layer_1" xmlns="http://www.w3.org/2000/svg" xmlns:xlink="http://www.w3.org/1999/xlink" x="0px" y="0px"
	 width="898.981px" height="562.973px" viewBox="0 0 898.981 562.973" enable-background="new 0 0 898.981 562.973"
	 xml:space="preserve">
<path fill="#F33B1D" d="M792.448,101.975c-7.526-3.628-21.1-1.479-33.598-3.494c-25.132-4.032-28.222-11.154-28.222-16.395
	c-0.135-5.51-5.107-5.779-5.107,0.134c0.135,34.941,52.681,17.067,67.599,26.071 M587.906,103.991 M611.423,232.199
	c-1.611-7.392-8.062-15.186-15.319-14.245c3.359,2.284,5.913,10.885,6.854,16.395c-2.285-6.182-7.93-12.766-14.648-11.96
	c3.627,3.225,5.777,11.154,7.122,17.067c-3.629-6.854-8.063-11.961-14.649-11.154c4.436,4.301,6.048,11.827,7.123,17.604
	c-2.15-4.838-7.123-10.75-13.842-10.078c4.166,3.762,5.913,11.96,7.391,18.008c-2.688-3.629-6.719-8.736-13.035-8.198
	c4.166,4.032,6.048,11.962,7.795,18.009 M632.926,495.199c-7.122-4.299-16.933-2.821-21.503,3.091
	c5.107-0.939,12.633,1.882,15.59,4.301c-4.838-3.091-14.916-1.209-18.814,4.167c4.569-1.21,11.961,1.881,15.857,4.166
	c-5.105-1.747-13.035-1.345-18.008,4.703c4.166-0.94,11.02,1.344,15.455,3.897c-6.316-1.479-12.498,0.94-16.127,5.241
	c5.511-1.21,11.691,2.016,15.455,3.763c-7.123-0.135-11.424,2.688-13.977,5.645c4.568-0.94,11.558,1.479,16.664,4.167
	 M819.863,539.413c-9.273-1.209-16.935,4.437-19.219,11.021c2.554-2.016,10.618-3.225,15.858-1.612
	c-7.257-0.403-14.514,5.51-15.992,10.886c2.957-2.419,12.364-3.091,15.858-1.612c-6.585,0.268-12.901,5.24-14.783,10.751
	c3.091-2.016,11.691-2.822,16.529-1.613c-7.122,1.075-12.229,6.183-13.841,10.886c4.3-2.822,9.943-2.553,16.932-2.15
	c-7.256,2.688-9.675,5.778-12.094,10.617c4.032-2.554,11.154-2.688,18.143-2.151"/>
<path d="M771.75,46.07l-32.79,1.21c-1.613,0.134-2.823,0.94-2.823,2.821c0.135,11.828,2.42,19.487,10.886,25.669
	c-1.074,6.585-0.402,9.945,6.451,15.455c0.672-5.375,2.821-7.794,6.181-10.079c0.27,0.135,0.538,0.135,0.673,0.269
	c-0.403,2.418-0.403,4.972,0.135,6.45c1.344,3.763,7.929,3.897,9.677,1.209c1.611,3.897,4.972,4.032,7.659,4.032
	c2.822,0,4.166-2.016,5.107-3.897c1.612,1.344,3.225,2.822,4.703,4.704c4.704,6.451,5.511,14.783,5.511,22.711
	c-1.479,0.135-2.956,0.269-4.436,0.403v-3.225c-0.135-4.57-10.752-5.375-13.171-1.478c-2.687-2.957-11.02-2.419-11.02,2.284v1.478
	c-1.882-2.418-3.36-4.972-4.569-7.525c-3.359,2.15-5.375,3.763-4.838,11.423c-1.478,0.134-2.955,0.269-4.301,0.403
	c0.135,8.87,4.032,11.289,35.748,10.617c0.806,8.87-8.064,13.842-14.647,18.008c-17.203,9.811-35.345,20.562-45.155,38.57
	c-8.198,14.246-10.215,31.178-9.273,47.575l9.407-4.167l1.076,5.107c-16.934,8.063-47.844,24.458-68.137,33.865
	c-4.973,2.286-17.874,5.511-20.562,0.941c-9.272-15.993-16.664-28.087-27.415-40.317c-5.51-6.316-42.064,23.921-35.345,34.135
	c15.32,23.249,40.317,56.577,81.978,56.847c43.139,0.269,80.634-15.59,88.832-18.008l1.747,5.51
	c-5.51,2.419-10.349,4.165-16.127,6.047c7.525,29.566,16.261,41.123,36.555,59.131l-4.167,3.092
	c-3.629-2.15-9.811-9.004-13.169-12.229c-43.141,20.427-59.267,40.854-69.615,61.953c-11.423,25.4-9.272,54.295-4.435,81.037
	c0.94,4.435-3.897,6.586-7.525,5.241c-9.945-2.284-15.455-12.229-24.997-15.858c-4.3-1.88-9.944-4.03-14.648-3.224
	c-7.66,1.344-15.858,40.047-8.063,43.811c14.514,7.122,30.373,8.601,46.499,16.933c10.616,4.301,20.831,11.288,32.925,9.407
	c6.854-0.671,13.709-5.375,14.381-12.632c6.047-26.071,14.514-53.757,34.402-72.571c9.543-9.407,21.906-16.933,34.136-22.712
	c-4.838-18.546-8.467-37.092-8.063-56.442l5.914-0.27c4.299,73.646,23.921,89.1,58.459,123.37
	c3.493,3.493,3.226,10.079-1.882,12.095c-6.719,3.359-14.647,3.493-22.309,3.897c-8.197,0.402-2.016,45.827,10.079,45.423
	c21.233-0.672,43.274-17.201,56.041-33.463c5.375-6.72,11.826-13.438,16.933-20.023c6.316-8.198-0.537-17.74-2.419-25.266
	c-5.241-21.503-7.66-83.322-7.93-91.923l7.526,0.135l1.075-15.589c-22.442-27.818-18.814-71.361-28.088-99.449
	c-3.628-11.422-7.659-23.248-7.659-35.344c0-16.396,18.545-47.171,18.143-74.586c-0.135-11.558-6.585-26.609-6.451-33.463
	c0.135-19.89,11.557-15.589,11.289-56.981c-0.135-11.423-1.479-19.89-4.436-31.582c20.024-21.099-7.525-42.198-23.384-29.029
	c-12.767-3.36-14.38-6.719-39.375-6.719c-21.368,0-33.598,5.779-46.903,14.649 M733.046,169.305
	c-39.241-11.558-67.061-16.799-82.648-28.625c-15.725-11.961-8.736-38.301-27.686-52.278c-9.407-6.988-39.106,9.542-34.537,16.665
	c29.162,45.424-9.811,56.309,123.369,132.374C711.007,195.377,718.936,186.641,733.046,169.305"/>
<path fill="#FFFFFF" d="M818.519,71.603c-15.858-25.13-28.625-27.684-33.329-9.541c-1.882,7.391,4.569,7.257,6.047,1.747
	c1.748-6.182,4.704-12.632,16.396,5.241c1.074,1.479,4.704,2.553,6.72,2.553 M857.76,58.433c3.764-3.763,8.198-6.989,13.438-9.272
	c6.316-2.151,3.092-8.601-4.838-5.913c-5.375,1.747-10.348,5.913-13.573,10.213 M748.501,76.711
	c-1.209,4.166,0.27,8.87,3.897,11.423c0.672-2.957,2.822-5.645,5.107-7.526C753.34,79.398,750.517,77.92,748.501,76.711
	 M770.003,83.833c-2.688-0.806-5.51-1.344-8.197-2.016c-0.537,2.016-0.537,4.167-0.135,5.376c1.076,2.956,6.048,3.091,7.391,0.94
	C769.601,87.327,770.003,85.58,770.003,83.833 M771.618,84.237c-0.404,1.612-0.673,3.493,0,4.837
	c1.343,2.554,3.762,2.688,5.913,2.688c2.418,0,3.627-1.613,4.299-3.226C778.739,86.52,775.245,85.311,771.618,84.237
	 M764.359,119.178v-0.941c-1.88-2.285-3.493-4.838-4.972-7.526c-2.957,2.15-3.359,5.375-2.957,9.139 M775.245,118.237v-3.359
	c-0.134-4.167-9.541-4.435-9.541,0v4.233 M787.339,117.162v-2.957c0-4.032-10.885-4.3-10.885,0.135v3.763"/>
<g>
	<path d="M328.15,562.972c-6.616-6.008-6.793-10.711-6.793-20.289c-1.305,0-2.697-1.828-4.527-1.828
		c-1.654,2.176-2.875,3.57-3.395,6.094c-0.785,0.176-1.482,0.35-2.18,0.609c-0.26-0.957-0.609-1.914-0.957-2.785
		c-5.836-10.102-0.174-14.543,5.66-22.992c0.174-1.564,0.436-3.047,0.609-4.525c-1.393-8.449-1.393-8.449-3.309-16.113
		c-0.088-1.391-0.174-2.785-0.262-4.09c3.309-6.621,7.055-13.586,9.493-20.643c0-2.697-1.046-3.396-3.831-3.568
		c-112.777,8.012-190.633-3.57-288.953-84.126c-7.576-8.358-36.75-37.62-28.129-41.021c63.313,49.203,169.383,77.855,249.678,61.832
		c6.529-2.09,6.529-2.09,8.881-2.352c0,1.395-0.086,3.309,1.568,3.309c0.871-4.094,3.396-6.53,6.879-7.401
		c0.436-1.828,1.133-2.785,2.352-4.267c2.176,0,6.531,2.613,7.838,2.438c0.348-1.565,0.697-4.18,1.045-5.659
		c3.832-0.695,10.016,0.87,11.408,4.788c1.395-1.396-0.697-8.184,0-10.797c3.744,0,6.619,2.522,10.189,2.177
		c0.174-2.613-1.045-4.527-1.221-7.228c2.963,0,8.273-0.522,11.67-0.522c-1.219-4.789-8.273-1.306-9.316-7.316
		c4.006,0,16.023,2.353,16.023-3.219c-3.135-1.396-5.313-2.44-6.531-3.66c2.525-3.832,13.934-5.051,18.29-5.397
		c0.172-5.746-4.009-0.785-7.664-3.66c-0.525-7.227,13.147-9.229,18.287-11.844c0-5.312-4.355-1.828-8.709-2.438
		c-1.396-4.613,5.922-7.401,9.057-10.103c0-5.138-6.443-0.694-10.275-1.306c0-4.27,11.322-13.672,15.066-16.809
		c0-11.234-13.76,1.305-14.457-5.052c4.877-3.746,18.461-8.188,18.812-13.586c-3.572-0.694-10.365,1.133-10.627-2.875
		c2.787-2.961,8.971-5.746,12.889-7.75c0.349-7.662-12.977,0.694-10.799-4.789c4.615-0.696,18.896-10.103,20.291-14.28
		c-1.305-5.4-10.363-0.785-13.672-1.222c0.871-6.011,23.34-15.239,26.211-16.72c0.438-0.959,0.785-2.004,1.223-2.963
		c-4.707-0.871-7.315-0.608-11.934,0.871c-0.262-0.174-0.434-0.437-0.609-0.608c3.484-3.483,13.5-10.449,17.332-10.449
		c-1.305-6.53-6.707-0.176-7.75-5.313c4.961-1.394,9.23-5.049,13.672-7.836c-0.176-0.785-0.262-1.653-0.438-2.524
		c-2.523-1.22-8.098,0.957-8.969-0.871c3.918-5.836,15.414-6.705,20.988-9.668c2.004-7.313-7.84-1.306-8.273-6.008
		c5.66-3.57,13.324-4.877,20.203-7.229c0.176-3.224-1.305-2.438-4.355-3.481c1.219-6.531,18.551-4.441,18.551-12.716
		c-5.312-0.871-5.659-0.959-12.629,0.783c0.438-3.744,15.066-9.317,18.728-10.017c-1.742-6.793-14.371,1.481-14.806-3.135
		c3.57-3.57,14.457-6.009,19.07-7.837c2.266-4.528-4.527-3.657-6.098-6.356c1.656-3.223,10.801-5.924,14.109-7.577
		c3.57-5.834-5.66-0.609-4.266-5.834c6.354-2.179,10.448-6.357,16.547-8.795c0-3.921-0.354-5.054-0.178-9.146
		c-4.094-0.87-5.487,3.048-9.229,2.699c-0.438-4.181,4.704-6.271,4.352-12.019c-5.137,0-7.137,6.531-10.883,6.097
		c1.305-9.754,15.328-19.42,7.574-20.203c-1.219,0.783-17.152,12.365-19.418,10.188c3.832-2.267,17.766-23.948,12.277-24.474
		c-2.785,1.396-13.063,7.402-15.591,7.056c0.091-3.832,14.634-16.11,17.423-18.026c2.262-0.957,4.702-3.136,3.395-5.662
		c-9.145-0.26-18.551,14.108-26.91,10.888c-0.172-0.609,3.57-3.482,3.484-4.093c2.262-2.264,28.737-24.646,28.737-27.604
		c-6.358-3.138-23.516,9.927-31.612,9.927c38.229-40.757,64.969-55.734,80.993-59.306c12.887-2.612,23.688,2.265,36.486,5.051
		c0,4.269,20.117-2.961,23.25-2.961c7.664,1.045,15.328,7.056,17.596,14.629c0,1.919,0.607,3.921,0.607,5.925
		c6.094,19.594,53.99,12.627,61.479,34.051c0,0.086,0,0.175,0,0.349c-0.52,8.709,0.09,14.106,2.09,23.688
		c-2.262,6.619-2.699,20.117-10.188,22.815c-6.707,0.437-6.707,0.437-6.879,0.871c-5.312,3.83-11.062,9.403-17.594,10.625
		c0,0-26.82-9.843-33.961-4.965c-20.293,6.793-27.521,12.978-32.398,33.963c-3.57,20.379-1.566,33.006,6.445,51.729
		c1.742,0.351,3.223,0.09,5.051,0c10.277,0,33.879-5.746,31.352,11.846c-2.613,3.136-4.617,5.14-5.396,9.058
		c-0.178,1.654-0.264,3.31-0.35,5.052c13.41,24.209-7.664,52.252-18.203,31.353c-1.305-3.396-0.262-5.748,0.178-6.794
		c2.09-0.088,3.74,0.175,5.482-0.956c0.09-3.138,0.09-3.138-0.607-4.271c-3.135-1.043-7.229-2.697-10.275-3.396
		c0-1.222-0.088-2.525-0.088-3.658c1.57-1.653,6.014-11.496,6.271-13.76c0-1.22,0-1.22-2.699-5.398
		c-3.57-0.35-7.926-2.612-13.062,2.873c-3.656,44.326,7.664,51.729-20.642,119.224c0,1.479,0.871,2.961,0.871,4.44
		c21.772,21.423,26.215,26.298,24.474,54.863c4.44,27.435,10.711,53.819,10.711,81.772c3.483,18.984,5.573,27.781,15.938,38.84
		c4.18,2.613,8.883,3.223,14.28,3.223c14.109-0.607,10.363-5.486,24.734,3.92c2.09,2.438,8.793,10.887,10.102,13.408
		c0.695,2.527,1.48,2.004,1.48,5.057c-4.096-0.613-3.66-1.221-7.143-2.967c-1.568,1.311-1.479,1.656-2.09,3.574
		c1.305,2.523,1.48,4.527,1.48,7.229c-1.656,0-5.924-1.221-5.924-3.66c-2.611,0-3.568-1.043-4.529,1.223
		c-1.566,0.263-9.402,8.707-14.892,10.188c-2.353,2.352-39.798-6.186-63.31-0.609c0-1.828-2.789-2.699-3.224-5.922
		c0-10.016,3.043-22.992-2.354-31.09c-4.961,1.395-9.142,7.141-9.401,10.711c-10.711-6.965,3.047-24.906-2.353-28.563
		c4.44-13.762-11.147-19.854-14.633-47.896c-2.961-23.426-22.38-36.574-29.173-53.035c-18.551,9.315-34.659,18.375-54.603,24.473
		c-31.176,19.246-43.809,65.574-46.854,80.902c-3.396,13.934,5.923,21.246,16.724,22.293c0-0.086,0-0.172,0-0.172
		c8.098,0.434,17.938-5.75,23.25,3.219c4.008,2.699,21.336,16.113,20.465,23.426c-4.875,0.699-5.137-3.654-12.102-3.133
		c-19.509,8.445-10.888,9.578-34.056,9.578C362.375,559.577,346.351,557.312,328.15,562.972L328.15,562.972z"/>
	<path fill="#464444" d="M540.12,556.965c1.133-0.086,2.353-0.178,3.569-0.264c-0.263,0.086-0.435,0.178-0.608,0.264
		C542.038,556.965,541.077,556.965,540.12,556.965L540.12,556.965z"/>
	<path fill="#ED1C24" d="M334.161,550.433c-4.703-3.137-3.136-10.973-3.312-15.854c0-0.258,0-0.607,0-0.869
		c-1.306,0-2.785-2.092-4.093-2.962c-0.521-0.866-1.045-1.827-1.567-2.698c2.267-3.396,3.569-2.871,3.569-6.879
		c-0.174,0-0.434,0-0.608,0c-1.308-3.225-2.438-7.488-1.131-10.798c0.608-0.522,0.608-0.522,0.349-3.832
		c-0.349-0.091-0.609-0.177-0.959-0.263c-8.622-14.547,9.493-24.211,9.493-37.535c2.351-6.965,31.959-15.15,37.619-16.979
		c2.703-0.438,2.09,0.957,2.09,2.352c-14.543,13.936-17.328,27.605-18.724,46.764c-2,3.922-6.44,9.232-10.797,10.973
		c-0.088,1.047-0.176,2.004-0.262,3.051c5.228,0,4.354-0.785,8.621-2.09c1.914,0.957,2.438,1.219,2.438,3.309
		c-3.569,8.014-17.854,5.053-19.157,9.842c0.521,0,0.959,0,1.479,0c3.744,0.607,11.408,0.521,10.451,6.27
		c-1.83,1.656-5.834,3.137-6.793,5.316c0.174,0.344,0.434,0.689,0.697,1.043c5.746-0.086,7.314-0.871,12.713-2.438
		c1.133,0.086,2.352,0.172,3.57,0.258c4.703,5.75,19.598-0.434,24.734,2.967c0.172,2.348,1.565,4.266,1.565,5.658
		c4.617,0,8.013-1.654,13.063-2.09c4.526,0.263,5.051-1.047,8.449,1.48c-0.263,4.18-2.789,4.525-6.621,6.27
		C379.357,550.695,355.146,551.913,334.161,550.433L334.161,550.433z"/>
	<path fill="#5E4B44" d="M540.728,543.816c1.565,0,3.138,0,4.703,0c-1.396,1.129-1.742,1.391-3.57,1.566
		C541.422,544.859,541.077,544.336,540.728,543.816L540.728,543.816z"/>
	<path fill="#423A38" d="M601.512,536.152c1.396,0,2.789,0,4.271,0c0,0.172,0,0.348,0,0.521c-1.48,0-2.875,0-4.271,0
		C601.512,536.499,601.512,536.323,601.512,536.152L601.512,536.152z"/>
	<path fill="#423A38" d="M543.081,520.562c0.608-1.219,0.608-1.219,1.742-1.742c-0.091,0.957-0.177,1.918-0.263,2.961
		c0.694,0.438,2.438,0,2.961,0.609c-0.349,0.176-0.785,0.348-1.133,0.609c-1.048-0.174-2.005-0.35-2.875-0.523
		C543.34,521.87,543.167,521.172,543.081,520.562L543.081,520.562z"/>
	<path fill="#423A38" d="M538.9,210.187c0-0.174,0-0.437,0-0.608c0.608,0,1.22,0,1.828,0c0.694,0,1.479,0,2.353,0
		C541.599,209.751,540.292,210.013,538.9,210.187L538.9,210.187z"/>
	<path d="M556.836,46.726c-0.172-0.261-0.349-0.521-0.521-0.783c2.263-0.174,2.263-0.174,2.871,0.437
		C558.318,46.466,557.538,46.554,556.836,46.726L556.836,46.726z"/>
	<path fill="#464444" d="M563.107,38.802c-2.263-1.742-1.306-3.312-0.349-5.835c5.312,0.521,5.402,0.349,4.793,5.312
		C566.159,38.455,564.417,38.628,563.107,38.802L563.107,38.802z"/>
	<path fill="#FFFFFF" d="M563.37,37.757c-0.781-1.307-0.957-1.567-0.609-2.961c1.224,0.088,2.441,0.175,3.746,0.349
		c0,0.696,0,1.394,0,2.09C565.458,37.41,564.417,37.582,563.37,37.757L563.37,37.757z"/>
	<path fill="#464444" d="M553.181,28.787c4.879,0.262,8.188,1.741,5.137,6.271c-2,0-3.479,0.174-5.313-0.785
		C553.094,32.445,553.094,30.617,553.181,28.787L553.181,28.787z"/>
	<path fill="#FFFFFF" d="M558.581,33.576c-1.306,0.959-1.914,0.873-3.57,0.873c-0.784-0.783-0.784-0.783-0.956-3.224
		c0.956-1.133,2.09-0.783,3.483-0.783C557.883,31.4,558.232,32.445,558.581,33.576L558.581,33.576z"/>
	<path fill="#FFFFFF" d="M625.987,98.021c-0.523-1.047-1.047-2.09-1.656-3.138c-1.305-0.174-2.09,2.701-5.922,2.527
		c0-2.005-0.086-5.574,0.871-7.315c1.133,0.088,2.266,0.088,3.482,0.174c0.264,0.696,0.957,2.787,1.307,3.571
		c1.918-2.092,3.744-2.698,6.098-2.698c1.828,1.739,0.871,4.612-0.439,6.354C628.508,97.671,627.206,97.847,625.987,98.021
		L625.987,98.021z"/>
	<path fill="#FFFFFF" d="M610.745,97.671c-0.957-1.828-1.133-4.614-1.133-6.879c1.568-1.567,3.309-2.267,5.664-1.742
		C615.538,94.363,616.405,95.494,610.745,97.671L610.745,97.671z"/>
	<path fill="#FFFFFF" d="M603.952,95.146c-1.307-1.653-1.48-5.051-0.436-6.967c1.047,0,2.439,0.696,3.484,0.696
		C609.004,92.361,607,94.625,603.952,95.146L603.952,95.146z"/>
	<path fill="#FFFFFF" d="M597.508,93.406c-1.742-0.87-1.57-2.092-2.526-3.745c-2.176-0.086-4.181,1.133-5.483,0.784
		c-2.004-0.696-2.267-3.397,0-7.489c1.392-0.088,4.004,0.086,5.051,1.653c0.609,0.959-0.438,3.396,0.173,3.746
		c1.306,0.608,2.96-2.612,5.052-2.612c1.395,1.396,0.607,4.354,0.607,6.271C599.598,92.185,598.206,93.144,597.508,93.406
		L597.508,93.406z"/>
	<path fill="#FFFFFF" d="M580.176,87.046c-1.913-2.176-0.87-4.267-0.87-7.14c3.047-0.176,6.012-0.872,6.444,2.611
		C584.008,84.173,582.443,86.177,580.176,87.046L580.176,87.046z"/>
	<path fill="#ED1C24" d="M608.831,533.538c0.348,3.656-4.879,2.613-7.316,2.613c-1.047-0.785-1.914-1.395-2.875-2.354
		C602.297,530.577,605.608,532.32,608.831,533.538L608.831,533.538z"/>
	<path fill="#ED1C24" d="M527.228,194.425c1.047-1.133,4.44-4.877,5.66-2.09c3.573,3.481,3.483,9.315,8.103,11.319
		c2.961-2.786,26.995-1.307,31.522-1.133c4.788,4.183-0.871,8.623-0.521,19.072c-0.263,3.481-6.271,4.963-6.271,1.133
		c-1.832-4.877,0.952-11.496-5.315-13.761c-9.316,0-16.371-0.262-27.605,1.568C528.797,205.746,527.491,200.607,527.228,194.425
		L527.228,194.425z"/>
	<path fill="#CE4D37" d="M575.474,247.111c-4.613,1.83-5.574,3.658-5.574-1.653c2.095-2.697,3.138-5.138,6.272-5.397
		C576.607,241.363,576.956,246.503,575.474,247.111L575.474,247.111z"/>
	<path fill="#ED1C24" d="M512.948,324.792c-22.384-26.824-45.109-56.17-79.423-67.403c-1.043-0.349-2.176-0.609-3.31-0.871
		c-2.176,0-24.125-2.265-23.077-3.658c1.219-0.174,25.516-0.086,26.733-0.262c16.547,0,22.646-8.271,39.974-16.109
		c2.698-0.608,4.266-0.784,6.53-2.352c0-0.521,0-1.046,0-1.568c0.871-5.397,5.051-26.387,5.051-31.873
		c-0.262-0.176-0.434-0.348-0.694-0.522c-2.526,1.396-2.526,1.396-3.137,2.267c-7.837,23.427-26.474,35.617-47.724,45.371
		c-7.75,1.133-29.434,1.653-33.789,6.01c-3.047,0-10.276,2.787-6.879-2.438c14.629-30.217,35.707-40.06,50.771-66.187
		c0.176-0.437,0.438-0.868,0.608-1.219c0.176-1.479,0.438-2.787,0.609-4.181c1.828-4.183,8.103-7.838,11.582-10.711
		c1.047-0.785,2.004-1.481,3.052-2.179c-0.087-0.784-0.177-1.479-0.177-2.178c-1.306-0.871-1.828-1.133-2.262-2.524
		c0.086-0.437,0.172-0.871,0.348-1.22c3.396-1.916,8.271-4.702,12.017-6.096c0-0.522,0-1.045,0-1.568
		c-1.565-0.436-3.047-0.957-4.526-1.565c0-0.959,0.522-1.567,0.522-2.353c4.961-3.569,10.017-7.84,15.938-9.491
		c0-0.697,0-1.396,0-2.093c-4.354-0.608-6.883,2.525-12.021,2.005c0-0.695,0-1.394,0-2.091c3.311-1.916,11.41-8.709,14.893-8.709
		c0-0.957,0-2.004,0-2.961c-4.092,0-16.021,3.31-16.021-3.832c0.693-3.047,8.102-12.713,5.312-14.106
		c-5.574-9.666-12.63-18.026-16.72-28.563c2.09-2.61-0.353-5.922,2.699-9.58c5.659-3.135,3.309,5.397,8.707,4.269
		c-6.88-30.045,9.145-37.795,9.059-38.492c-4.789,1.394-7.664,1.394-10.887,1.656c-0.172,0-0.263,0-0.349,0
		c2.004-12.192,20.289-23.078,30.742-25.953c8.272-0.871,24.383-3.92,30.129,3.92c0,1.654-1.134,3.222-1.134,5.397
		c7.23,0,16.896-6.356,24.734-8.971c4.526-1.914,8.098-1.74,12.276-0.349c1.655,1.479,4.616,3.569,2.703,3.569
		c-12.544-3.918-30.479,6.097-40.673,11.671c-1.479,0.088-2.87,0.262-4.352,0.696c-0.086,1.394-0.086,1.394,0.604,2.699
		c5.75,1.307,7.841,2.875,15.419,2.264c1.479,2.002,2.961,3.92,4.44,5.922c0.957,2.265,2.698,3.05,5.137,3.05
		c0.609-3.396-0.78-3.396-2.176-6.011c2.262-3.569-1.396-6.444,4.181-9.229c2.961-0.696,2.784,1.479,4.44,0.871
		c-6.621,8.447-2.875,14.369,17.938,17.067l0,0c1.396-0.694,5.486,0.437,4.965-4.526c-2.783,0-3.654-2.963-4.004-5.312
		c1.564,0.608,2.871,0.871,4.439,1.306c1.652,6.793,46.066,12.978,52.859,21.424c2.699,3.483-0.348,5.662-6.879,8.535
		c0,2.959,3.918,9.58,6.27,11.062c1.48-0.959,1.566-2.875,2.09-4.443c2.613-1.219,2.439-0.174,2.961,1.83
		c-0.262,3.05-0.262,6.097,0.266,9.229c-0.523,0.609-0.957,1.134-1.396,1.742c-1.479,0.437-3.656,0.349-5.137,0.349
		c-6.971-1.479-14.285-2.002-22.035-2.699c-19.595-8.883-42.668-26.387-62.09-33.44c-3.224-2.002-2.613-2.438-6.707-1.916
		c0.176,3.224,2.18,3.483,4.616,4.877c5.746,6.356,10.888,9.929,8.358,18.812l0,0c-0.176,0.871-0.348,1.83-0.348,2.699
		c-7.664,0.784-1.742-13.147-8.621-14.369c-15.938,12.978,8.969,43.108,24.121,33.791c-7.664-3.05-8.445-6.968-8.445-7.927
		c17.591,8.709,54.254,16.634,57.824,18.113c-0.262,2.7-6.098,2.004-6.359,3.571c-9.055,2.524-22.641-2.963-30.477-6.881
		c-8.363-0.608-18.379,12.715-37.883,7.142c-3.484-1.308-21.773-14.106-24.906-13.324c-1.219,5.925,14.021,19.942,18.022,21.945
		c0.177,1.307,0.438,2.612,0.608,3.92c-3.047,2.786-9.142,7.575-8.793,12.364c4.267-0.174,6.008-1.653,10.012-1.653
		c0.091,2.09,0.177,4.183,0.268,6.271c0,6.965-8.188,2.961-11.324,1.479c-2.699-1.131-4.875-4.615-7.488-3.567
		c0,0.606,0,1.219,0,1.827c0.173,0,12.277,13.149,12.539,13.41c0,1.567,0,3.224,0,4.789c-0.172,0.262-0.434,0.524-0.608,0.873
		c-4.181,0-6.354-2.613-10.188-2.787c-0.086,1.739-0.352,2.004,0.695,3.396c4.616,6.097,9.668,11.758,11.059,14.281
		c-0.957,2.524-1.565,1.827-4.18,1.827c-3.224-1.653-13.586-10.015-17.156-9.752c-0.348,4.615,10.539,16.022,12.716,18.983
		c0.522,4.007,0.698,5.66-4.267,5.66c-4.008-2.178-9.754-7.75-13.238-7.926c-0.086,0.438-0.086,0.873-0.172,1.395
		c4.699,5.486,14.892,13.498,13.148,21.511c-3.656,0-4.875-2.353-7.314-1.742c0,2.701,0,2.701,0.436,2.875
		c1.914,8.447,15.5,13.062,15.5,20.029c-4.354,0.608-8.443-2.699-13.146-2.699c0,1.308-0.523,2.353,0.957,2.353
		c5.141,5.14,12.275,11.233,15.15,17.938c-1.305,1.308-0.086,1.479-2.354,2.353c-4.438-1.396-9.141-4.008-13.934-3.744
		c-0.348,1.132,20.902,20.203,23.516,31.785c0.086,1.742-0.176,5.312-0.348,6.881c-5.574-0.87-10.801-8.709-12.719-13.586
		c-0.605-0.174-1.219-0.262-1.828-0.438c0.699,7.315,3.57,12.455,3.57,20.293c-4.961-1.045-4.875-6.271-8.969-7.141
		c-0.086,0.87-0.263,1.739-0.349,2.698c7.663,6.185,1.396,32.918,2.438,42.935C515.999,325.14,515.646,324.968,512.948,324.792
		L512.948,324.792z M553.529,42.023c4.789,0.873,19.685,6.533,14.634,7.927l0,0c-4.793,0-12.629-0.437-15.677-5.052L553.529,42.023
		L553.529,42.023z M491.439,34.796c-0.698,0-3.483,2.961-4.185,2.961c0-0.782,2.091-4.44,2.091-5.139
		c4.879-9.841,15.065-13.761,24.211-11.933c0,0.61-0.086,1.219-0.086,1.83c-13.5,4.092-10.712,20.728-11.234,20.985
		C497.793,41.416,496.922,34.187,491.439,34.796L491.439,34.796z M491.176,93.841c0-11.062-13.151-29,5.832-38.405
		c0.353,0-4.526,25.776,10.539,33.614c0,0.697,0,1.396,0,2.093c-2.004,0.346-4.879,0.26-7.487,0.26
		c-1.569-2.784-1.479-1.133-4.181-1.133c0,2.961,2.091,8.272,2.608,11.233C495.792,100.197,492.396,97.498,491.176,93.841
		L491.176,93.841z M515.297,48.207c0.609-3.047-3.483-5.397-0.694-6.705c4.004-0.351,6.444-2.698,6.444-6.271
		c2.957,0,8.445,2.61,10.103,4.877c-0.87,3.224-2.698,3.744-3.832,6.183c1.565,3.049,2.613,3.744,2.177,7.056
		c-0.871,0.174-1.742,0.348-2.526,0.522c-2.438-0.522-13.759-2.005-13.759,0.606c-3.047,0.438-5.142,0-8.358,0.262
		c-1.22-1.219,1.828-2.002,2.438-3.829C510.072,50.035,512.422,48.642,515.297,48.207L515.297,48.207z"/>
	<path fill="#ED1C24" d="M410.534,404.214c0.784-1.914,7.229-8.621,4.354-10.017c-3.57,1.832-5.66,4.441-7.927,7.664
		c-8.793,5.574-29.434,17.505-37.969,17.505c-13.586,9.146-29.695,16.112-40.494,18.288
		c-61.311,16.633-118.61,14.281-144.477,11.234c-22.816-2.699-25.951-0.438,35.01,9.84C193.34,472.49,86.31,425.115,50.693,394.635
		c-2.699-0.609-7.664-7.755-7.576-10.103c53.469,30.737,168.336,58.956,228.078,33.44c25.689-7.056,51.293-23.254,67.752-44.5
		c12.889-16.984,19.768-35.013,26.213-55.215c1.047-0.435,2.004-0.871,3.047-1.22c3.832,15.853,7.578,30.133,19.685,44.151
		c0.262,1.31,0.522,2.353-0.608,3.31c-4.613,1.047-8.884-4.44-13.763-4.789c16.112,18.113,57.478,29.957,73.414,37.884
		c2.703,0,0,2.961-1.22,3.309c-78.551,37.883-135.679,70.801-224.94,61.225c-0.523-0.178-7.752-0.438-8.275-0.609
		c0-1.219,9.059-2.18,9.928-2.699C268.845,458.82,372.392,442.969,410.534,404.214L410.534,404.214z M230.527,440.531
		c17.939,1.133,36.141-2.699,54.604-6.184c10.449-2.004,36.141-19.941,46.852-19.941c1.568,0,1.568-1.569,0-1.569
		c-3.047,0-22.031,4.095-26.125,6.185c-30.916,15.504-51.816,16.113-53.818,16.895C244.199,438.788,242.63,437.48,230.527,440.531
		L230.527,440.531z"/>
	<path fill="#ED1C24" d="M571.732,546.863c-6.099-3.047-15.59-4.094-22.729-4.525c-3.047,1.129-5.836,2.262-9.492,1.043
		c-1.395-4.006,0.609-19.771-2.09-19.771c-1.742-4.004-8.969-17.938-14.022-17.938c-0.867-2.441-0.957-11.672-1.828-12.543
		c-3.483-7.229-11.668-18.549-13.147-25.688c-0.086-1.309-0.172-2.613-0.262-3.832c-1.566-22.469-28.043-47.112-28.043-64.621
		c1.047-1.651,13.586-4.526,16.37-4.961c2.095,0,2.875-1.741,4.793-1.741c0.087-0.695,0.087-1.31,0.173-2.005
		c-5.052-2.522-11.492-2.438-16.896-5.137c0-1.396,0-2.699,0-3.918c3.051-1.57,8.711-2.354,7.754-6.883
		c-3.66,0.438-7.056,0-10.715,0c-8.359-0.523-16.72-1.134-25.078-1.48c-1.396,0-2.789,0-4.185,0
		c-55.906,2.267-116.955-84.473-53.992-107.114c0.609,0.608,1.656,0.174,7.316,0.174c1.918,3.312-6.793,2.613-7.488,5.312
		c5.656,1.656,9.492,0.959,14.195,2.527c0,1.305,0,2.61,0,3.918c-1.484,0.957-1.832,0.871-3.57,0.871
		c44.238,7.487,79.684,56.43,87.085,56.43c0-4.698-9.93-8.53-8.625-14.367c0.785,0,1.57,0,2.353,0
		c16.638,14.892,41.19,39.277,48.16,55.039c1.479,8.793,8.099,53.561,8.62,76.547c0,18.027,1.914,32.57,9.23,49.293
		c0,0.086,0,0.172,0,0.264c4.965,16.021-4.613,9.055-13.148,22.115c5.574-0.172,8.099-4.439,13.759-4.439
		c0,0.607,1.918,3.66,1.918,4.354c-1.828,1.48-9.845,5.139-12.104,5.139c-0.177,1.479-0.435,1.918,0.435,3.137
		c4.008-0.176,7.926-0.785,12.104-0.785c0-2.004,6.444-5.836,8.362-7.141c1.479,0,3.134-0.436,4.177,0.607
		c0,14.281,13.151,12.105,23.602,17.506c0.523,2.787-0.086,3.654-2.438,5.137C585.318,548.081,578.611,547.472,571.732,546.863
		L571.732,546.863z M489.345,353.445c3.313,0,2.094,0.609,4.53,1.828c5.574,1.565,22.293,12.978,22.293,19.685
		c-1.828,0.086-3.569,0.172-5.312,0.344c-8.707-3.396-14.805-10.534-22.992-14.104c-2.871,2.875-32.395,3.742-33.699-4.702
		C466.792,356.492,476.806,353.964,489.345,353.445L489.345,353.445z M396.25,332.281c-1.565-10.272-1.129-2.608,1.742-2.961
		c4.266,4.88,32.918,24.91,31.613,29.523C413.668,359.453,401.478,348.48,396.25,332.281L396.25,332.281z M522.788,481.808
		c-4.267-5.836-7.75-12.367-10.188-19.16c0-5.051-2.875-17.59-2.268-22.727c0.957,0.172,4.271,8.793,5.229,9.055
		c4.525,11.324,4.525,11.324,7.836,17.332c3.568,0.434,3.832,0.695,6.971-0.871c1.395,1.566,0.521,3.223,0.172,5.051
		c-1.043,3.918-2,8.707-4.092,12.629C523.486,483.636,525.228,482.504,522.788,481.808L522.788,481.808z M540.12,488.34
		c3.396,0,6.354,10.447,7.664,14.371c0.694,0.869,0.694,1.219,1.827,1.219c0,1.133,0,2.352,0,3.479c-1.918,0-2.09,1.656-2.961,3.313
		c-0.87,0-1.655-0.09-2.526-0.09C541.077,502.187,538.116,498.094,540.12,488.34L540.12,488.34z"/>
	<path fill="#ED1C24" d="M603.602,525.613c-2.262,1.656-2.869,2.523-5.83,2.268c0-1.135,0-2.182,0-3.313
		C600.465,524.566,602.038,523.609,603.602,525.613L603.602,525.613z"/>
</g>
</svg>
