<?xml version="1.0" encoding="utf-8"?>
<!-- Generator: Adobe Illustrator 16.0.0, SVG Export Plug-In . SVG Version: 6.00 Build 0)  -->
<!DOCTYPE svg PUBLIC "-//W3C//DTD SVG 1.1//EN" "http://www.w3.org/Graphics/SVG/1.1/DTD/svg11.dtd">
<svg version="1.1" id="Layer_1" xmlns="http://www.w3.org/2000/svg" xmlns:xlink="http://www.w3.org/1999/xlink" x="0px" y="0px"
	 width="696px" height="116.667px" viewBox="0 0 696 116.667" enable-background="new 0 0 696 116.667" xml:space="preserve">
<g enable-background="new    ">
	<path fill="#454545" d="M62.209,37.497l5.019,10.53l4.641-10.385h5.192l-9.659,20.421H67.17l-5.105-10.211l-5.105,10.211h-0.232
		l-9.659-20.421h5.192l4.641,10.385l5.018-10.53H62.209z"/>
	<path fill="#454545" d="M80.824,57.947V37.643h7.31c7.716,0,10.065,5.889,10.065,10.123c0,4.352-2.35,10.182-10.065,10.182H80.824z
		 M88.134,53.625c4.699,0,5.366-4.351,5.366-5.859c0-1.508-0.667-5.83-5.366-5.83h-2.698v11.689H88.134z"/>
</g>
<g enable-background="new    ">
	<path fill="#454545" d="M40.331,76.947l-2.189-10.021h1.112l1.252,6.57c0.132,0.674,0.249,1.357,0.349,2.051l0.369-1.854
		l1.563-6.768h1.321l1.172,5.072c0.286,1.236,0.5,2.418,0.641,3.549c0.105-0.652,0.24-1.379,0.404-2.182l1.293-6.439h1.094
		l-2.259,10.021h-1.045l-1.736-7.635l-0.26-1.176c-0.078,0.438-0.157,0.828-0.239,1.176l-1.743,7.635H40.331z"/>
	<path fill="#454545" d="M48.98,73.318c0-1.254,0.263-2.199,0.79-2.838c0.526-0.637,1.193-0.957,2-0.957
		c0.793,0,1.456,0.32,1.989,0.957c0.533,0.639,0.8,1.559,0.8,2.762c0,1.305-0.262,2.275-0.786,2.912
		c-0.524,0.639-1.192,0.957-2.003,0.957c-0.797,0-1.462-0.32-1.993-0.961C49.246,75.511,48.98,74.566,48.98,73.318z M50.012,73.314
		c0,0.939,0.171,1.639,0.513,2.098s0.766,0.688,1.271,0.688c0.474,0,0.881-0.23,1.22-0.693c0.339-0.465,0.509-1.16,0.509-2.092
		c0-0.936-0.171-1.633-0.513-2.092c-0.342-0.457-0.766-0.688-1.271-0.688c-0.479,0-0.886,0.23-1.224,0.691
		S50.012,72.382,50.012,73.314z"/>
	<path fill="#454545" d="M55.748,76.947v-7.26h0.909v1.102c0.232-0.512,0.445-0.85,0.639-1.016s0.411-0.25,0.653-0.25
		c0.337,0,0.681,0.133,1.032,0.396l-0.342,1.143c-0.25-0.178-0.495-0.268-0.731-0.268c-0.214,0-0.41,0.076-0.588,0.227
		s-0.303,0.359-0.376,0.629c-0.127,0.469-0.191,0.969-0.191,1.496v3.801H55.748z"/>
	<path fill="#454545" d="M59.589,76.947V66.925h1.005v5.725l2.395-2.963h1.307l-2.277,2.695l2.503,4.564h-1.237l-1.978-3.721
		l-0.712,0.844v2.877H59.589z"/>
	<path fill="#454545" d="M65.311,68.341v-1.416h1.005v1.416H65.311z M65.311,76.947v-7.26h1.005v7.26H65.311z"/>
	<path fill="#454545" d="M67.861,76.947v-7.26h0.909v1.025c0.218-0.398,0.486-0.695,0.802-0.893
		c0.316-0.197,0.679-0.297,1.088-0.297c0.318,0,0.613,0.062,0.884,0.188c0.271,0.127,0.489,0.291,0.655,0.492
		c0.166,0.203,0.29,0.467,0.372,0.791c0.082,0.322,0.123,0.82,0.123,1.49v4.463h-1.005v-4.42c0-0.533-0.045-0.924-0.137-1.17
		s-0.233-0.438-0.427-0.572s-0.418-0.201-0.673-0.201c-0.483,0-0.868,0.18-1.155,0.541c-0.287,0.359-0.431,0.979-0.431,1.854v3.969
		H67.861z"/>
	<path fill="#454545" d="M74.047,77.548l0.984,0.178c0.045,0.391,0.182,0.68,0.41,0.871c0.228,0.189,0.544,0.285,0.95,0.285
		c0.442,0,0.794-0.107,1.056-0.318c0.262-0.213,0.441-0.527,0.537-0.947c0.059-0.256,0.089-0.793,0.089-1.613
		c-0.219,0.312-0.465,0.547-0.738,0.707c-0.273,0.158-0.577,0.236-0.909,0.236c-0.711,0-1.301-0.301-1.771-0.902
		c-0.538-0.691-0.807-1.619-0.807-2.781c0-0.779,0.119-1.461,0.355-2.045c0.237-0.582,0.548-1.012,0.933-1.285
		s0.817-0.41,1.295-0.41c0.351,0,0.671,0.086,0.96,0.258s0.546,0.432,0.769,0.775v-0.869h0.93v6.275
		c0,1.117-0.091,1.914-0.273,2.389c-0.182,0.477-0.481,0.854-0.896,1.129s-0.914,0.414-1.497,0.414c-0.77,0-1.363-0.207-1.777-0.623
		C74.234,78.857,74.034,78.283,74.047,77.548z M74.881,73.187c0,0.955,0.158,1.652,0.473,2.09c0.315,0.439,0.701,0.658,1.158,0.658
		s0.845-0.215,1.165-0.645c0.32-0.428,0.479-1.111,0.479-2.049c0-0.914-0.165-1.594-0.493-2.039
		c-0.329-0.445-0.729-0.668-1.199-0.668c-0.42,0-0.789,0.223-1.106,0.668S74.881,72.31,74.881,73.187z"/>
	<path fill="#454545" d="M83.939,76.947V66.925h2.837c0.702,0,1.235,0.062,1.6,0.186c0.479,0.158,0.893,0.451,1.244,0.875
		s0.625,0.957,0.82,1.602c0.196,0.646,0.294,1.41,0.294,2.295c0,1.135-0.167,2.098-0.499,2.887c-0.333,0.791-0.76,1.352-1.282,1.682
		c-0.522,0.332-1.204,0.496-2.047,0.496H83.939z M85.026,75.765h1.75c0.707,0,1.242-0.115,1.606-0.346s0.645-0.6,0.841-1.111
		c0.26-0.678,0.39-1.492,0.39-2.439c0-1.018-0.138-1.816-0.414-2.396c-0.276-0.582-0.63-0.969-1.063-1.166
		c-0.292-0.131-0.754-0.197-1.388-0.197h-1.723V75.765z"/>
	<path fill="#454545" d="M92.108,76.947v-7.26h0.909v1.102c0.232-0.512,0.445-0.85,0.639-1.016s0.411-0.25,0.653-0.25
		c0.337,0,0.681,0.133,1.032,0.396L95,71.062c-0.25-0.178-0.495-0.268-0.731-0.268c-0.214,0-0.41,0.076-0.588,0.227
		s-0.303,0.359-0.376,0.629c-0.127,0.469-0.191,0.969-0.191,1.496v3.801H92.108z"/>
	<path fill="#454545" d="M99.805,76.052c-0.337,0.35-0.688,0.615-1.053,0.793s-0.743,0.266-1.135,0.266
		c-0.62,0-1.114-0.186-1.483-0.561c-0.369-0.373-0.554-0.877-0.554-1.51c0-0.42,0.086-0.791,0.26-1.115
		c0.173-0.322,0.41-0.576,0.711-0.758c0.301-0.184,0.756-0.316,1.367-0.404c0.82-0.119,1.422-0.264,1.805-0.43l0.007-0.314
		c0-0.498-0.089-0.846-0.267-1.047c-0.25-0.291-0.636-0.438-1.155-0.438c-0.469,0-0.82,0.098-1.053,0.293
		c-0.232,0.193-0.403,0.559-0.513,1.096l-0.991-0.164c0.141-0.779,0.427-1.348,0.858-1.703s1.047-0.533,1.849-0.533
		c0.625,0,1.114,0.117,1.47,0.352c0.355,0.236,0.58,0.525,0.673,0.873c0.093,0.346,0.14,0.852,0.14,1.518v1.641
		c0,1.148,0.021,1.871,0.065,2.17s0.129,0.59,0.256,0.871h-1.053C99.905,76.697,99.837,76.398,99.805,76.052z M99.723,73.304
		c-0.369,0.182-0.918,0.336-1.647,0.465c-0.424,0.072-0.72,0.156-0.889,0.248c-0.168,0.094-0.3,0.227-0.393,0.396
		c-0.093,0.172-0.14,0.369-0.14,0.592c0,0.348,0.107,0.623,0.321,0.83c0.214,0.209,0.51,0.312,0.889,0.312
		c0.36,0,0.687-0.094,0.981-0.281c0.294-0.186,0.514-0.436,0.66-0.748s0.219-0.768,0.219-1.363V73.304z"/>
	<path fill="#454545" d="M102.594,76.947v-6.303h-0.896v-0.957h0.896v-0.771c0-0.57,0.06-0.998,0.178-1.283
		c0.119-0.283,0.3-0.502,0.545-0.652c0.244-0.15,0.552-0.225,0.922-0.225c0.288,0,0.603,0.043,0.946,0.129l-0.15,1.066
		c-0.209-0.045-0.408-0.068-0.595-0.068c-0.301,0-0.516,0.078-0.646,0.236c-0.13,0.156-0.195,0.457-0.195,0.898v0.67h1.162v0.957
		h-1.162v6.303H102.594z"/>
	<path fill="#454545" d="M107.749,75.847l0.137,1.086c-0.278,0.074-0.529,0.109-0.752,0.109c-0.351,0-0.633-0.068-0.848-0.209
		c-0.214-0.139-0.361-0.328-0.441-0.57c-0.08-0.24-0.12-0.723-0.12-1.441v-4.178h-0.738v-0.957h0.738V67.89l1.005-0.738v2.535h1.019
		v0.957h-1.019v4.246c0,0.391,0.03,0.645,0.089,0.758c0.086,0.164,0.249,0.246,0.485,0.246
		C107.418,75.894,107.566,75.878,107.749,75.847z"/>
</g>
<ellipse fill="none" stroke="#454545" stroke-width="5" stroke-miterlimit="10" cx="74.066" cy="59.043" rx="60.179" ry="43.413"/>
<g enable-background="new    ">
	<path fill="#454545" d="M248.733,38.401c-1.16-1.393-3.335-2.669-5.047-2.669c-4.699,0-5.366,4.525-5.366,6.033
		c0,1.509,0.667,6.005,5.395,6.005c1.798,0,3.916-1.132,5.308-2.408l2.669,3.191c-2.205,2.204-4.757,3.654-8.006,3.654
		c-7.716,0-10.095-6.091-10.095-10.442c0-4.234,2.379-10.413,10.095-10.413c3.48,0,5.975,1.595,8.151,4.061L248.733,38.401z"/>
	<path fill="#454545" d="M261.085,51.947h-4.612V31.643h7.774c5.627,0,7.338,3.944,7.338,6.7c0,2.872-1.566,4.932-3.742,6.005
		l3.568,7.6h-5.076l-3.191-6.816h-2.06V51.947z M266.944,38.343c0-0.841-0.464-2.407-2.552-2.407h-3.307v4.844h3.423
		C266.48,40.722,266.944,39.098,266.944,38.343z"/>
</g>
<g enable-background="new    ">
	<path fill="#454545" d="M234.527,66.685l1.016,0.311c-0.224,1.045-0.617,1.824-1.177,2.34c-0.561,0.514-1.243,0.77-2.047,0.77
		c-0.707,0-1.311-0.172-1.812-0.518c-0.502-0.344-0.912-0.898-1.231-1.66c-0.32-0.762-0.479-1.662-0.479-2.699
		c0-1.025,0.16-1.893,0.479-2.602s0.753-1.244,1.299-1.607c0.546-0.361,1.157-0.543,1.83-0.543c0.737,0,1.37,0.23,1.9,0.688
		c0.529,0.459,0.9,1.131,1.112,2.018l-0.99,0.285c-0.339-1.291-1.019-1.936-2.041-1.936c-0.508,0-0.949,0.129-1.322,0.391
		c-0.373,0.26-0.67,0.666-0.893,1.217c-0.222,0.551-0.333,1.246-0.333,2.09c0,1.275,0.224,2.23,0.673,2.867
		c0.449,0.639,1.045,0.957,1.79,0.957c0.55,0,1.025-0.195,1.425-0.588C234.125,68.074,234.392,67.48,234.527,66.685z"/>
	<path fill="#454545" d="M240.272,69.115c-0.313,0.326-0.639,0.572-0.978,0.736c-0.338,0.166-0.69,0.248-1.054,0.248
		c-0.576,0-1.035-0.174-1.377-0.52c-0.343-0.348-0.514-0.814-0.514-1.404c0-0.389,0.081-0.732,0.241-1.033s0.381-0.535,0.66-0.705
		s0.703-0.295,1.27-0.375c0.762-0.111,1.32-0.244,1.676-0.4l0.006-0.291c0-0.461-0.083-0.785-0.248-0.971
		c-0.233-0.271-0.59-0.406-1.073-0.406c-0.436,0-0.762,0.09-0.978,0.271c-0.216,0.18-0.375,0.52-0.476,1.016l-0.92-0.152
		c0.131-0.723,0.397-1.25,0.796-1.58c0.4-0.33,0.973-0.494,1.717-0.494c0.58,0,1.035,0.109,1.365,0.326
		c0.33,0.219,0.539,0.488,0.625,0.809c0.087,0.322,0.13,0.793,0.13,1.41v1.523c0,1.066,0.02,1.738,0.06,2.016
		c0.041,0.277,0.12,0.547,0.238,0.809h-0.978C240.365,69.714,240.302,69.437,240.272,69.115z M240.196,66.564
		c-0.343,0.17-0.853,0.312-1.53,0.432c-0.394,0.068-0.668,0.145-0.825,0.232c-0.157,0.086-0.278,0.209-0.365,0.367
		c-0.087,0.158-0.13,0.342-0.13,0.549c0,0.322,0.1,0.58,0.298,0.771c0.199,0.193,0.474,0.289,0.825,0.289
		c0.334,0,0.638-0.086,0.911-0.26c0.272-0.174,0.477-0.406,0.612-0.695c0.135-0.291,0.203-0.713,0.203-1.268V66.564z"/>
	<path fill="#454545" d="M242.602,69.947v-6.74h0.844v0.951c0.203-0.369,0.451-0.646,0.745-0.83c0.293-0.182,0.63-0.273,1.011-0.273
		c0.295,0,0.569,0.059,0.82,0.174c0.251,0.117,0.454,0.27,0.608,0.457c0.154,0.189,0.27,0.434,0.345,0.732
		c0.076,0.301,0.114,0.762,0.114,1.385v4.145h-0.933v-4.104c0-0.496-0.042-0.859-0.127-1.088s-0.217-0.406-0.397-0.531
		c-0.18-0.125-0.388-0.188-0.625-0.188c-0.449,0-0.806,0.168-1.073,0.504c-0.267,0.334-0.4,0.908-0.4,1.721v3.686H242.602z"/>
	<path fill="#454545" d="M252.11,69.947v-0.85c-0.169,0.326-0.387,0.574-0.654,0.746c-0.267,0.17-0.554,0.256-0.863,0.256
		c-0.652,0-1.216-0.307-1.691-0.924c-0.477-0.615-0.714-1.482-0.714-2.6c0-0.766,0.105-1.414,0.317-1.947
		c0.211-0.533,0.493-0.93,0.846-1.188c0.353-0.258,0.745-0.387,1.176-0.387c0.309,0,0.595,0.08,0.859,0.244
		c0.264,0.162,0.482,0.391,0.656,0.682v-3.338h0.946v9.305H252.11z M249.146,66.583c0,0.871,0.151,1.52,0.454,1.941
		c0.303,0.424,0.655,0.635,1.058,0.635c0.398,0,0.743-0.203,1.035-0.609c0.292-0.406,0.438-1.02,0.438-1.84
		c0-0.943-0.146-1.633-0.438-2.066c-0.292-0.434-0.661-0.65-1.105-0.65c-0.394,0-0.733,0.207-1.017,0.625
		C249.288,65.035,249.146,65.691,249.146,66.583z"/>
	<path fill="#454545" d="M254.459,61.955v-1.312h0.933v1.312H254.459z M254.459,69.947v-6.74h0.933v6.74H254.459z"/>
	<path fill="#454545" d="M260.407,69.947v-0.85c-0.169,0.326-0.387,0.574-0.654,0.746c-0.267,0.17-0.554,0.256-0.863,0.256
		c-0.652,0-1.216-0.307-1.691-0.924c-0.477-0.615-0.714-1.482-0.714-2.6c0-0.766,0.105-1.414,0.317-1.947
		c0.211-0.533,0.493-0.93,0.846-1.188c0.353-0.258,0.745-0.387,1.176-0.387c0.309,0,0.595,0.08,0.859,0.244
		c0.264,0.162,0.482,0.391,0.656,0.682v-3.338h0.946v9.305H260.407z M257.442,66.583c0,0.871,0.151,1.52,0.454,1.941
		c0.303,0.424,0.655,0.635,1.058,0.635c0.398,0,0.743-0.203,1.035-0.609c0.292-0.406,0.438-1.02,0.438-1.84
		c0-0.943-0.146-1.633-0.438-2.066c-0.292-0.434-0.661-0.65-1.105-0.65c-0.394,0-0.733,0.207-1.017,0.625
		C257.584,65.035,257.442,65.691,257.442,66.583z"/>
	<path fill="#454545" d="M266.354,69.115c-0.313,0.326-0.639,0.572-0.978,0.736c-0.338,0.166-0.69,0.248-1.054,0.248
		c-0.576,0-1.035-0.174-1.377-0.52c-0.343-0.348-0.514-0.814-0.514-1.404c0-0.389,0.081-0.732,0.241-1.033s0.381-0.535,0.66-0.705
		s0.703-0.295,1.27-0.375c0.762-0.111,1.32-0.244,1.676-0.4l0.006-0.291c0-0.461-0.083-0.785-0.248-0.971
		c-0.233-0.271-0.59-0.406-1.073-0.406c-0.436,0-0.762,0.09-0.978,0.271c-0.216,0.18-0.375,0.52-0.476,1.016l-0.92-0.152
		c0.131-0.723,0.397-1.25,0.796-1.58c0.4-0.33,0.973-0.494,1.717-0.494c0.58,0,1.035,0.109,1.365,0.326
		c0.33,0.219,0.539,0.488,0.625,0.809c0.087,0.322,0.13,0.793,0.13,1.41v1.523c0,1.066,0.02,1.738,0.06,2.016
		c0.041,0.277,0.12,0.547,0.238,0.809h-0.978C266.448,69.714,266.384,69.437,266.354,69.115z M266.278,66.564
		c-0.343,0.17-0.853,0.312-1.53,0.432c-0.394,0.068-0.668,0.145-0.825,0.232c-0.157,0.086-0.278,0.209-0.365,0.367
		c-0.087,0.158-0.13,0.342-0.13,0.549c0,0.322,0.1,0.58,0.298,0.771c0.199,0.193,0.474,0.289,0.825,0.289
		c0.334,0,0.638-0.086,0.911-0.26c0.272-0.174,0.477-0.406,0.612-0.695c0.135-0.291,0.203-0.713,0.203-1.268V66.564z"/>
	<path fill="#454545" d="M270.766,68.925l0.127,1.01c-0.258,0.066-0.491,0.102-0.698,0.102c-0.326,0-0.588-0.064-0.787-0.193
		s-0.335-0.307-0.41-0.531c-0.074-0.225-0.111-0.67-0.111-1.34v-3.877h-0.686v-0.889h0.686v-1.67l0.933-0.686v2.355h0.946v0.889
		h-0.946v3.941c0,0.363,0.027,0.6,0.083,0.705c0.081,0.152,0.23,0.229,0.451,0.229C270.459,68.97,270.597,68.955,270.766,68.925z"/>
	<path fill="#454545" d="M275.425,67.777l0.965,0.145c-0.161,0.721-0.452,1.264-0.873,1.629c-0.421,0.367-0.942,0.549-1.564,0.549
		c-0.783,0-1.417-0.297-1.901-0.891c-0.484-0.596-0.727-1.453-0.727-2.574c0-1.164,0.244-2.053,0.733-2.664
		c0.488-0.611,1.107-0.916,1.856-0.916c0.715,0,1.312,0.301,1.79,0.9c0.478,0.602,0.717,1.471,0.717,2.609l-0.006,0.305h-4.126
		c0.038,0.758,0.214,1.328,0.527,1.713c0.313,0.387,0.694,0.578,1.143,0.578C274.662,69.16,275.15,68.699,275.425,67.777z
		 M272.347,65.929h3.085c-0.042-0.584-0.167-1.02-0.375-1.309c-0.3-0.418-0.684-0.627-1.149-0.627c-0.419,0-0.776,0.174-1.073,0.523
		S272.376,65.337,272.347,65.929z"/>
</g>
<g enable-background="new    ">
	<path fill="#454545" d="M211.631,83.947v-9.305h3.383c0.707,0,1.229,0.086,1.564,0.26c0.337,0.174,0.613,0.461,0.829,0.865
		s0.324,0.873,0.324,1.406c0,0.701-0.183,1.27-0.549,1.705c-0.366,0.436-0.898,0.713-1.597,0.832c0.284,0.17,0.5,0.342,0.647,0.518
		c0.3,0.355,0.565,0.75,0.793,1.186l1.333,2.533h-1.27l-1.018-1.934c-0.395-0.758-0.692-1.268-0.893-1.531
		c-0.201-0.262-0.396-0.439-0.583-0.529c-0.188-0.092-0.451-0.139-0.79-0.139h-1.167v4.133H211.631z M212.641,78.748h2.171
		c0.474,0,0.833-0.057,1.079-0.17c0.246-0.115,0.44-0.295,0.584-0.541c0.144-0.244,0.216-0.529,0.216-0.855
		c0-0.471-0.138-0.84-0.413-1.107c-0.275-0.27-0.684-0.404-1.225-0.404h-2.412V78.748z"/>
	<path fill="#454545" d="M222.975,81.777l0.965,0.145c-0.161,0.721-0.452,1.264-0.873,1.629c-0.421,0.367-0.942,0.549-1.564,0.549
		c-0.783,0-1.417-0.297-1.901-0.891c-0.484-0.596-0.727-1.453-0.727-2.574c0-1.164,0.244-2.053,0.733-2.664
		c0.488-0.611,1.107-0.916,1.856-0.916c0.715,0,1.312,0.301,1.79,0.9c0.478,0.602,0.717,1.471,0.717,2.609l-0.006,0.305h-4.126
		c0.038,0.758,0.214,1.328,0.527,1.713c0.313,0.387,0.694,0.578,1.143,0.578C222.211,83.16,222.7,82.699,222.975,81.777z
		 M219.896,79.929h3.085c-0.042-0.584-0.167-1.02-0.375-1.309c-0.3-0.418-0.684-0.627-1.149-0.627c-0.419,0-0.776,0.174-1.073,0.523
		S219.926,79.337,219.896,79.929z"/>
	<path fill="#454545" d="M228.745,81.478l0.92,0.146c-0.106,0.803-0.371,1.418-0.797,1.84c-0.425,0.424-0.936,0.635-1.533,0.635
		c-0.724,0-1.319-0.297-1.787-0.891c-0.468-0.596-0.702-1.475-0.702-2.639c0-1.172,0.236-2.051,0.708-2.637
		c0.472-0.586,1.078-0.879,1.819-0.879c0.571,0,1.053,0.178,1.444,0.533c0.392,0.355,0.643,0.889,0.752,1.6l-0.908,0.164
		c-0.089-0.455-0.243-0.795-0.463-1.02c-0.22-0.227-0.484-0.338-0.793-0.338c-0.461,0-0.843,0.203-1.146,0.611
		c-0.303,0.408-0.454,1.057-0.454,1.945c0,0.92,0.145,1.584,0.435,1.994c0.29,0.41,0.662,0.615,1.114,0.615
		c0.355,0,0.659-0.137,0.911-0.408C228.517,82.478,228.677,82.054,228.745,81.478z"/>
	<path fill="#454545" d="M230.103,80.576c0-1.162,0.245-2.041,0.733-2.633c0.489-0.594,1.108-0.889,1.857-0.889
		c0.736,0,1.352,0.295,1.847,0.889c0.495,0.592,0.743,1.447,0.743,2.564c0,1.209-0.243,2.111-0.73,2.703
		c-0.487,0.594-1.106,0.889-1.86,0.889c-0.741,0-1.357-0.297-1.85-0.891C230.35,82.613,230.103,81.736,230.103,80.576z
		 M231.062,80.574c0,0.873,0.159,1.521,0.476,1.947s0.711,0.639,1.181,0.639c0.44,0,0.818-0.215,1.133-0.645
		c0.315-0.43,0.473-1.078,0.473-1.941c0-0.869-0.159-1.516-0.476-1.941s-0.711-0.639-1.181-0.639c-0.444,0-0.823,0.213-1.136,0.641
		C231.218,79.064,231.062,79.708,231.062,80.574z"/>
	<path fill="#454545" d="M236.394,83.947v-6.74h0.838v0.939c0.186-0.35,0.424-0.619,0.716-0.809c0.292-0.189,0.61-0.283,0.957-0.283
		c0.389,0,0.717,0.1,0.985,0.299c0.269,0.201,0.459,0.492,0.574,0.875c0.221-0.391,0.475-0.686,0.761-0.881s0.604-0.293,0.952-0.293
		c0.531,0,0.949,0.18,1.255,0.539s0.458,0.936,0.458,1.727v4.627h-0.933v-4.25c0-0.484-0.035-0.826-0.105-1.027
		s-0.184-0.355-0.341-0.467c-0.157-0.109-0.334-0.166-0.53-0.166c-0.404,0-0.734,0.16-0.989,0.48s-0.383,0.822-0.383,1.51v3.92
		h-0.933v-4.385c0-0.559-0.085-0.953-0.257-1.182c-0.171-0.229-0.407-0.344-0.708-0.344c-0.427,0-0.765,0.174-1.012,0.52
		c-0.248,0.344-0.372,0.975-0.372,1.891v3.5H236.394z"/>
	<path fill="#454545" d="M245.274,83.947v-6.74h0.838v0.939c0.186-0.35,0.424-0.619,0.716-0.809c0.292-0.189,0.61-0.283,0.957-0.283
		c0.389,0,0.717,0.1,0.985,0.299c0.269,0.201,0.459,0.492,0.574,0.875c0.221-0.391,0.475-0.686,0.761-0.881s0.604-0.293,0.952-0.293
		c0.531,0,0.949,0.18,1.255,0.539s0.458,0.936,0.458,1.727v4.627h-0.933v-4.25c0-0.484-0.035-0.826-0.105-1.027
		s-0.184-0.355-0.341-0.467c-0.157-0.109-0.334-0.166-0.53-0.166c-0.404,0-0.734,0.16-0.989,0.48s-0.383,0.822-0.383,1.51v3.92
		h-0.933v-4.385c0-0.559-0.085-0.953-0.257-1.182c-0.171-0.229-0.407-0.344-0.708-0.344c-0.427,0-0.765,0.174-1.012,0.52
		c-0.248,0.344-0.372,0.975-0.372,1.891v3.5H245.274z"/>
	<path fill="#454545" d="M257.925,81.777l0.965,0.145c-0.161,0.721-0.452,1.264-0.873,1.629c-0.421,0.367-0.942,0.549-1.564,0.549
		c-0.783,0-1.417-0.297-1.901-0.891c-0.484-0.596-0.727-1.453-0.727-2.574c0-1.164,0.244-2.053,0.733-2.664
		c0.488-0.611,1.107-0.916,1.856-0.916c0.715,0,1.312,0.301,1.79,0.9c0.478,0.602,0.717,1.471,0.717,2.609l-0.006,0.305h-4.126
		c0.038,0.758,0.214,1.328,0.527,1.713c0.313,0.387,0.694,0.578,1.143,0.578C257.161,83.16,257.65,82.699,257.925,81.777z
		 M254.846,79.929h3.085c-0.042-0.584-0.167-1.02-0.375-1.309c-0.3-0.418-0.684-0.627-1.149-0.627c-0.419,0-0.776,0.174-1.073,0.523
		S254.876,79.337,254.846,79.929z"/>
	<path fill="#454545" d="M260.077,83.947v-6.74h0.844v0.951c0.203-0.369,0.451-0.646,0.745-0.83c0.293-0.182,0.63-0.273,1.011-0.273
		c0.295,0,0.569,0.059,0.82,0.174c0.251,0.117,0.454,0.27,0.608,0.457c0.154,0.189,0.27,0.434,0.345,0.732
		c0.076,0.301,0.114,0.762,0.114,1.385v4.145h-0.933v-4.104c0-0.496-0.042-0.859-0.127-1.088s-0.217-0.406-0.397-0.531
		c-0.18-0.125-0.388-0.188-0.625-0.188c-0.449,0-0.806,0.168-1.073,0.504c-0.267,0.334-0.4,0.908-0.4,1.721v3.686H260.077z"/>
	<path fill="#454545" d="M269.585,83.947v-0.85c-0.169,0.326-0.387,0.574-0.654,0.746c-0.267,0.17-0.554,0.256-0.863,0.256
		c-0.652,0-1.216-0.307-1.691-0.924c-0.477-0.615-0.714-1.482-0.714-2.6c0-0.766,0.105-1.414,0.317-1.947
		c0.211-0.533,0.493-0.93,0.846-1.188c0.353-0.258,0.745-0.387,1.176-0.387c0.309,0,0.595,0.08,0.859,0.244
		c0.264,0.162,0.482,0.391,0.656,0.682v-3.338h0.946v9.305H269.585z M266.621,80.583c0,0.871,0.151,1.52,0.454,1.941
		c0.303,0.424,0.655,0.635,1.058,0.635c0.398,0,0.743-0.203,1.035-0.609c0.292-0.406,0.438-1.02,0.438-1.84
		c0-0.943-0.146-1.633-0.438-2.066c-0.292-0.434-0.661-0.65-1.105-0.65c-0.394,0-0.733,0.207-1.017,0.625
		C266.763,79.035,266.621,79.691,266.621,80.583z"/>
	<path fill="#454545" d="M275.533,83.115c-0.313,0.326-0.639,0.572-0.978,0.736c-0.338,0.166-0.69,0.248-1.054,0.248
		c-0.576,0-1.035-0.174-1.377-0.52c-0.343-0.348-0.514-0.814-0.514-1.404c0-0.389,0.081-0.732,0.241-1.033s0.381-0.535,0.66-0.705
		s0.703-0.295,1.27-0.375c0.762-0.111,1.32-0.244,1.676-0.4l0.006-0.291c0-0.461-0.083-0.785-0.248-0.971
		c-0.233-0.271-0.59-0.406-1.073-0.406c-0.436,0-0.762,0.09-0.978,0.271c-0.216,0.18-0.375,0.52-0.476,1.016l-0.92-0.152
		c0.131-0.723,0.397-1.25,0.796-1.58c0.4-0.33,0.973-0.494,1.717-0.494c0.58,0,1.035,0.109,1.365,0.326
		c0.33,0.219,0.539,0.488,0.625,0.809c0.087,0.322,0.13,0.793,0.13,1.41v1.523c0,1.066,0.02,1.738,0.06,2.016
		c0.041,0.277,0.12,0.547,0.238,0.809h-0.978C275.626,83.714,275.563,83.437,275.533,83.115z M275.457,80.564
		c-0.343,0.17-0.853,0.312-1.53,0.432c-0.394,0.068-0.668,0.145-0.825,0.232c-0.157,0.086-0.278,0.209-0.365,0.367
		c-0.087,0.158-0.13,0.342-0.13,0.549c0,0.322,0.1,0.58,0.298,0.771c0.199,0.193,0.474,0.289,0.825,0.289
		c0.334,0,0.638-0.086,0.911-0.26c0.272-0.174,0.477-0.406,0.612-0.695c0.135-0.291,0.203-0.713,0.203-1.268V80.564z"/>
	<path fill="#454545" d="M279.945,82.925l0.127,1.01c-0.258,0.066-0.491,0.102-0.698,0.102c-0.326,0-0.588-0.064-0.787-0.193
		s-0.335-0.307-0.41-0.531c-0.074-0.225-0.111-0.67-0.111-1.34v-3.877h-0.686v-0.889h0.686v-1.67l0.933-0.686v2.355h0.946v0.889
		h-0.946v3.941c0,0.363,0.027,0.6,0.083,0.705c0.081,0.152,0.23,0.229,0.451,0.229C279.638,82.97,279.775,82.955,279.945,82.925z"/>
	<path fill="#454545" d="M280.827,75.955v-1.312h0.933v1.312H280.827z M280.827,83.947v-6.74h0.933v6.74H280.827z"/>
	<path fill="#454545" d="M282.839,80.576c0-1.162,0.245-2.041,0.733-2.633c0.489-0.594,1.108-0.889,1.857-0.889
		c0.736,0,1.352,0.295,1.847,0.889c0.495,0.592,0.743,1.447,0.743,2.564c0,1.209-0.243,2.111-0.73,2.703
		c-0.487,0.594-1.106,0.889-1.86,0.889c-0.741,0-1.357-0.297-1.85-0.891C283.086,82.613,282.839,81.736,282.839,80.576z
		 M283.798,80.574c0,0.873,0.159,1.521,0.476,1.947s0.711,0.639,1.181,0.639c0.44,0,0.818-0.215,1.133-0.645
		c0.315-0.43,0.473-1.078,0.473-1.941c0-0.869-0.159-1.516-0.476-1.941s-0.711-0.639-1.181-0.639c-0.444,0-0.823,0.213-1.136,0.641
		C283.955,79.064,283.798,79.708,283.798,80.574z"/>
	<path fill="#454545" d="M289.124,83.947v-6.74h0.844v0.951c0.203-0.369,0.451-0.646,0.745-0.83c0.293-0.182,0.63-0.273,1.011-0.273
		c0.295,0,0.569,0.059,0.82,0.174c0.251,0.117,0.454,0.27,0.608,0.457c0.154,0.189,0.27,0.434,0.345,0.732
		c0.076,0.301,0.114,0.762,0.114,1.385v4.145h-0.933v-4.104c0-0.496-0.042-0.859-0.127-1.088s-0.217-0.406-0.397-0.531
		c-0.18-0.125-0.388-0.188-0.625-0.188c-0.449,0-0.806,0.168-1.073,0.504c-0.267,0.334-0.4,0.908-0.4,1.721v3.686H289.124z"/>
</g>
<ellipse fill="none" stroke="#454545" stroke-width="5" stroke-miterlimit="10" cx="253.586" cy="59.043" rx="60.179" ry="43.413"/>
<g enable-background="new    ">
	<path fill="#454545" d="M422.584,51.947h-4.67V31.643h7.831c5.628,0,7.339,3.944,7.339,6.7c0,4.062-3.568,6.788-6.99,6.788h-3.51
		V51.947z M428.443,38.343c0-0.841-0.465-2.407-2.553-2.407h-3.307v4.844h3.394C427.979,40.722,428.443,39.098,428.443,38.343z"/>
	<path fill="#454545" d="M442.332,51.947h-4.611V31.643h7.773c5.627,0,7.339,3.944,7.339,6.7c0,2.872-1.566,4.932-3.741,6.005
		l3.567,7.6h-5.076l-3.19-6.816h-2.061V51.947z M448.191,38.343c0-0.841-0.463-2.407-2.552-2.407h-3.308v4.844h3.424
		C447.729,40.722,448.191,39.098,448.191,38.343z"/>
</g>
<g enable-background="new    ">
	<path fill="#454545" d="M412.793,69.947v-9.305h2.876c0.677,0,1.177,0.059,1.498,0.178c0.44,0.16,0.792,0.459,1.054,0.895
		s0.394,0.971,0.394,1.605c0,0.838-0.214,1.521-0.642,2.051c-0.427,0.529-1.166,0.793-2.215,0.793h-1.955v3.783H412.793z
		 M413.803,65.066h1.975c0.621,0,1.076-0.141,1.364-0.422s0.432-0.705,0.432-1.273c0-0.367-0.071-0.684-0.213-0.945
		s-0.313-0.441-0.514-0.539c-0.201-0.098-0.563-0.146-1.089-0.146h-1.955V65.066z"/>
	<path fill="#454545" d="M419.775,69.947v-6.74h0.845v1.021c0.216-0.475,0.413-0.789,0.594-0.943c0.18-0.154,0.382-0.23,0.606-0.23
		c0.312,0,0.633,0.123,0.958,0.367l-0.317,1.061c-0.232-0.166-0.459-0.248-0.68-0.248c-0.198,0-0.381,0.07-0.545,0.209
		c-0.166,0.141-0.281,0.336-0.35,0.584c-0.119,0.438-0.178,0.9-0.178,1.391v3.529H419.775z"/>
	<path fill="#454545" d="M422.969,66.576c0-1.162,0.244-2.041,0.732-2.633c0.49-0.594,1.108-0.889,1.857-0.889
		c0.736,0,1.352,0.295,1.848,0.889c0.494,0.592,0.742,1.447,0.742,2.564c0,1.209-0.243,2.111-0.73,2.703
		c-0.486,0.594-1.105,0.889-1.859,0.889c-0.74,0-1.357-0.297-1.85-0.891C423.215,68.613,422.969,67.736,422.969,66.576z
		 M423.928,66.574c0,0.873,0.158,1.521,0.476,1.947s0.711,0.639,1.181,0.639c0.439,0,0.818-0.215,1.133-0.645
		c0.315-0.43,0.473-1.078,0.473-1.941c0-0.869-0.158-1.516-0.476-1.941s-0.711-0.639-1.181-0.639c-0.444,0-0.823,0.213-1.137,0.641
		C424.084,65.064,423.928,65.708,423.928,66.574z"/>
	<path fill="#454545" d="M429.253,72.531v-9.324h0.863v0.875c0.212-0.363,0.446-0.625,0.704-0.787c0.257-0.16,0.553-0.24,0.887-0.24
		c0.436,0,0.828,0.129,1.179,0.387s0.632,0.65,0.847,1.178c0.213,0.527,0.319,1.16,0.319,1.9c0,1.146-0.24,2.031-0.72,2.65
		c-0.48,0.621-1.045,0.93-1.692,0.93c-0.288,0-0.557-0.074-0.806-0.223c-0.25-0.146-0.466-0.357-0.648-0.627v3.281H429.253z
		 M430.104,66.615c0,0.871,0.146,1.514,0.437,1.926c0.291,0.414,0.645,0.619,1.059,0.619c0.396,0,0.744-0.213,1.044-0.641
		s0.45-1.088,0.45-1.98c0-0.881-0.146-1.531-0.438-1.955s-0.646-0.635-1.063-0.635c-0.376,0-0.718,0.227-1.026,0.682
		C430.259,65.085,430.104,65.748,430.104,66.615z"/>
	<path fill="#454545" d="M434.826,66.576c0-1.162,0.244-2.041,0.732-2.633c0.49-0.594,1.108-0.889,1.857-0.889
		c0.736,0,1.352,0.295,1.848,0.889c0.494,0.592,0.742,1.447,0.742,2.564c0,1.209-0.243,2.111-0.73,2.703
		c-0.486,0.594-1.105,0.889-1.859,0.889c-0.74,0-1.357-0.297-1.85-0.891C435.072,68.613,434.826,67.736,434.826,66.576z
		 M435.785,66.574c0,0.873,0.158,1.521,0.476,1.947s0.711,0.639,1.181,0.639c0.439,0,0.818-0.215,1.133-0.645
		c0.315-0.43,0.473-1.078,0.473-1.941c0-0.869-0.158-1.516-0.476-1.941s-0.711-0.639-1.181-0.639c-0.444,0-0.823,0.213-1.137,0.641
		C435.941,65.064,435.785,65.708,435.785,66.574z"/>
	<path fill="#454545" d="M440.748,67.929l0.934-0.178c0.055,0.475,0.205,0.83,0.449,1.061c0.245,0.232,0.57,0.348,0.976,0.348
		s0.719-0.1,0.94-0.301s0.332-0.457,0.332-0.766c0-0.266-0.095-0.473-0.285-0.621c-0.131-0.102-0.449-0.229-0.952-0.381
		c-0.728-0.225-1.214-0.416-1.46-0.572s-0.436-0.365-0.571-0.629c-0.136-0.262-0.203-0.561-0.203-0.895
		c0-0.574,0.185-1.043,0.552-1.402c0.369-0.359,0.879-0.539,1.53-0.539c0.411,0,0.771,0.074,1.083,0.221
		c0.311,0.148,0.549,0.348,0.713,0.598c0.166,0.25,0.279,0.607,0.344,1.072l-0.914,0.152c-0.085-0.736-0.484-1.104-1.2-1.104
		c-0.406,0-0.709,0.08-0.907,0.242c-0.199,0.162-0.299,0.371-0.299,0.623c0,0.25,0.096,0.445,0.286,0.588
		c0.114,0.084,0.454,0.219,1.018,0.404c0.775,0.246,1.276,0.443,1.505,0.59c0.228,0.146,0.404,0.346,0.531,0.598
		c0.126,0.252,0.189,0.551,0.189,0.898c0,0.645-0.204,1.166-0.613,1.564c-0.408,0.398-0.965,0.598-1.672,0.598
		C441.729,70.099,440.96,69.376,440.748,67.929z"/>
	<path fill="#454545" d="M450.219,67.777l0.965,0.145c-0.16,0.721-0.451,1.264-0.873,1.629c-0.42,0.367-0.941,0.549-1.564,0.549
		c-0.782,0-1.416-0.297-1.9-0.891c-0.484-0.596-0.727-1.453-0.727-2.574c0-1.164,0.244-2.053,0.732-2.664s1.107-0.916,1.857-0.916
		c0.715,0,1.312,0.301,1.789,0.9c0.479,0.602,0.718,1.471,0.718,2.609l-0.007,0.305h-4.125c0.037,0.758,0.213,1.328,0.526,1.713
		c0.313,0.387,0.694,0.578,1.143,0.578C449.455,69.16,449.944,68.699,450.219,67.777z M447.141,65.929h3.085
		c-0.042-0.584-0.167-1.02-0.374-1.309c-0.301-0.418-0.684-0.627-1.149-0.627c-0.419,0-0.776,0.174-1.073,0.523
		C447.333,64.867,447.17,65.337,447.141,65.929z"/>
	<path fill="#454545" d="M455.951,69.947v-0.85c-0.17,0.326-0.387,0.574-0.654,0.746c-0.266,0.17-0.554,0.256-0.863,0.256
		c-0.651,0-1.215-0.307-1.691-0.924c-0.477-0.615-0.714-1.482-0.714-2.6c0-0.766,0.105-1.414,0.317-1.947
		c0.211-0.533,0.492-0.93,0.846-1.188c0.353-0.258,0.744-0.387,1.176-0.387c0.309,0,0.594,0.08,0.858,0.244
		c0.264,0.162,0.482,0.391,0.655,0.682v-3.338h0.946v9.305H455.951z M452.986,66.583c0,0.871,0.152,1.52,0.455,1.941
		c0.303,0.424,0.654,0.635,1.057,0.635c0.398,0,0.744-0.203,1.035-0.609c0.293-0.406,0.439-1.02,0.439-1.84
		c0-0.943-0.146-1.633-0.439-2.066c-0.291-0.434-0.66-0.65-1.104-0.65c-0.394,0-0.733,0.207-1.017,0.625
		C453.129,65.035,452.986,65.691,452.986,66.583z"/>
</g>
<g enable-background="new    ">
	<path fill="#454545" d="M393.836,83.947v-9.305h3.383c0.707,0,1.229,0.086,1.564,0.26c0.337,0.174,0.613,0.461,0.828,0.865
		c0.217,0.404,0.324,0.873,0.324,1.406c0,0.701-0.184,1.27-0.549,1.705c-0.366,0.436-0.898,0.713-1.597,0.832
		c0.284,0.17,0.499,0.342,0.647,0.518c0.301,0.355,0.564,0.75,0.793,1.186l1.334,2.533h-1.27l-1.018-1.934
		c-0.395-0.758-0.692-1.268-0.893-1.531c-0.201-0.262-0.396-0.439-0.584-0.529c-0.188-0.092-0.451-0.139-0.789-0.139h-1.167v4.133
		H393.836z M394.845,78.748h2.171c0.475,0,0.834-0.057,1.079-0.17c0.245-0.115,0.44-0.295,0.584-0.541
		c0.144-0.244,0.216-0.529,0.216-0.855c0-0.471-0.138-0.84-0.412-1.107c-0.275-0.27-0.684-0.404-1.226-0.404h-2.412V78.748z"/>
	<path fill="#454545" d="M405.179,81.777l0.965,0.145c-0.161,0.721-0.452,1.264-0.873,1.629c-0.421,0.367-0.942,0.549-1.564,0.549
		c-0.782,0-1.417-0.297-1.901-0.891c-0.484-0.596-0.727-1.453-0.727-2.574c0-1.164,0.244-2.053,0.733-2.664
		c0.488-0.611,1.107-0.916,1.856-0.916c0.715,0,1.312,0.301,1.79,0.9c0.478,0.602,0.718,1.471,0.718,2.609l-0.007,0.305h-4.126
		c0.038,0.758,0.214,1.328,0.527,1.713c0.312,0.387,0.693,0.578,1.143,0.578C404.415,83.16,404.904,82.699,405.179,81.777z
		 M402.1,79.929h3.086c-0.043-0.584-0.168-1.02-0.375-1.309c-0.301-0.418-0.684-0.627-1.148-0.627c-0.42,0-0.777,0.174-1.073,0.523
		S402.13,79.337,402.1,79.929z"/>
	<path fill="#454545" d="M410.949,81.478l0.92,0.146c-0.105,0.803-0.371,1.418-0.797,1.84c-0.425,0.424-0.936,0.635-1.533,0.635
		c-0.723,0-1.318-0.297-1.786-0.891c-0.468-0.596-0.702-1.475-0.702-2.639c0-1.172,0.236-2.051,0.708-2.637s1.078-0.879,1.819-0.879
		c0.57,0,1.053,0.178,1.443,0.533c0.392,0.355,0.643,0.889,0.752,1.6l-0.907,0.164c-0.089-0.455-0.243-0.795-0.464-1.02
		c-0.22-0.227-0.484-0.338-0.793-0.338c-0.461,0-0.844,0.203-1.146,0.611c-0.303,0.408-0.454,1.057-0.454,1.945
		c0,0.92,0.145,1.584,0.435,1.994s0.661,0.615,1.114,0.615c0.355,0,0.659-0.137,0.911-0.408
		C410.721,82.478,410.881,82.054,410.949,81.478z"/>
	<path fill="#454545" d="M412.307,80.576c0-1.162,0.245-2.041,0.733-2.633c0.489-0.594,1.108-0.889,1.856-0.889
		c0.736,0,1.353,0.295,1.848,0.889c0.495,0.592,0.742,1.447,0.742,2.564c0,1.209-0.242,2.111-0.729,2.703
		c-0.487,0.594-1.106,0.889-1.86,0.889c-0.74,0-1.357-0.297-1.85-0.891C412.554,82.613,412.307,81.736,412.307,80.576z
		 M413.266,80.574c0,0.873,0.158,1.521,0.477,1.947c0.316,0.426,0.711,0.639,1.18,0.639c0.44,0,0.818-0.215,1.134-0.645
		s0.473-1.078,0.473-1.941c0-0.869-0.159-1.516-0.476-1.941c-0.318-0.426-0.711-0.639-1.182-0.639c-0.443,0-0.822,0.213-1.136,0.641
		C413.422,79.064,413.266,79.708,413.266,80.574z"/>
	<path fill="#454545" d="M418.598,83.947v-6.74h0.838v0.939c0.186-0.35,0.424-0.619,0.717-0.809
		c0.291-0.189,0.609-0.283,0.956-0.283c0.389,0,0.718,0.1,0.985,0.299c0.269,0.201,0.459,0.492,0.574,0.875
		c0.221-0.391,0.475-0.686,0.761-0.881s0.604-0.293,0.952-0.293c0.531,0,0.949,0.18,1.255,0.539s0.458,0.936,0.458,1.727v4.627
		h-0.933v-4.25c0-0.484-0.035-0.826-0.105-1.027s-0.185-0.355-0.341-0.467c-0.158-0.109-0.334-0.166-0.53-0.166
		c-0.404,0-0.733,0.16-0.989,0.48s-0.383,0.822-0.383,1.51v3.92h-0.934v-4.385c0-0.559-0.085-0.953-0.257-1.182
		c-0.171-0.229-0.407-0.344-0.708-0.344c-0.427,0-0.765,0.174-1.012,0.52c-0.248,0.344-0.371,0.975-0.371,1.891v3.5H418.598z"/>
	<path fill="#454545" d="M427.479,83.947v-6.74h0.838v0.939c0.186-0.35,0.424-0.619,0.716-0.809s0.61-0.283,0.956-0.283
		c0.389,0,0.718,0.1,0.986,0.299c0.268,0.201,0.459,0.492,0.573,0.875c0.221-0.391,0.475-0.686,0.761-0.881
		c0.287-0.195,0.604-0.293,0.953-0.293c0.53,0,0.949,0.18,1.254,0.539c0.307,0.359,0.459,0.936,0.459,1.727v4.627h-0.934v-4.25
		c0-0.484-0.035-0.826-0.105-1.027s-0.184-0.355-0.341-0.467c-0.157-0.109-0.334-0.166-0.53-0.166c-0.404,0-0.733,0.16-0.988,0.48
		c-0.256,0.32-0.383,0.822-0.383,1.51v3.92h-0.934v-4.385c0-0.559-0.086-0.953-0.258-1.182c-0.17-0.229-0.406-0.344-0.707-0.344
		c-0.428,0-0.766,0.174-1.012,0.52c-0.248,0.344-0.372,0.975-0.372,1.891v3.5H427.479z"/>
	<path fill="#454545" d="M440.129,81.777l0.965,0.145c-0.16,0.721-0.451,1.264-0.873,1.629c-0.421,0.367-0.942,0.549-1.564,0.549
		c-0.783,0-1.416-0.297-1.901-0.891c-0.484-0.596-0.727-1.453-0.727-2.574c0-1.164,0.244-2.053,0.733-2.664
		c0.488-0.611,1.107-0.916,1.856-0.916c0.716,0,1.312,0.301,1.79,0.9c0.479,0.602,0.717,1.471,0.717,2.609l-0.006,0.305h-4.126
		c0.038,0.758,0.214,1.328,0.526,1.713c0.313,0.387,0.694,0.578,1.143,0.578C439.365,83.16,439.854,82.699,440.129,81.777z
		 M437.051,79.929h3.084c-0.042-0.584-0.166-1.02-0.374-1.309c-0.3-0.418-0.684-0.627-1.149-0.627c-0.418,0-0.775,0.174-1.072,0.523
		S437.08,79.337,437.051,79.929z"/>
	<path fill="#454545" d="M442.281,83.947v-6.74h0.844v0.951c0.203-0.369,0.451-0.646,0.744-0.83
		c0.294-0.182,0.631-0.273,1.012-0.273c0.295,0,0.568,0.059,0.82,0.174c0.251,0.117,0.453,0.27,0.607,0.457
		c0.154,0.189,0.27,0.434,0.346,0.732c0.076,0.301,0.114,0.762,0.114,1.385v4.145h-0.933v-4.104c0-0.496-0.043-0.859-0.127-1.088
		c-0.085-0.229-0.217-0.406-0.397-0.531c-0.18-0.125-0.388-0.188-0.625-0.188c-0.448,0-0.806,0.168-1.073,0.504
		c-0.266,0.334-0.399,0.908-0.399,1.721v3.686H442.281z"/>
	<path fill="#454545" d="M451.789,83.947v-0.85c-0.169,0.326-0.387,0.574-0.653,0.746c-0.267,0.17-0.554,0.256-0.863,0.256
		c-0.651,0-1.216-0.307-1.691-0.924c-0.477-0.615-0.714-1.482-0.714-2.6c0-0.766,0.105-1.414,0.316-1.947s0.493-0.93,0.846-1.188
		c0.354-0.258,0.745-0.387,1.176-0.387c0.309,0,0.595,0.08,0.859,0.244c0.264,0.162,0.482,0.391,0.655,0.682v-3.338h0.946v9.305
		H451.789z M448.825,80.583c0,0.871,0.151,1.52,0.454,1.941c0.303,0.424,0.655,0.635,1.058,0.635c0.397,0,0.743-0.203,1.035-0.609
		s0.438-1.02,0.438-1.84c0-0.943-0.146-1.633-0.438-2.066s-0.661-0.65-1.104-0.65c-0.395,0-0.733,0.207-1.018,0.625
		C448.967,79.035,448.825,79.691,448.825,80.583z"/>
	<path fill="#454545" d="M457.737,83.115c-0.313,0.326-0.64,0.572-0.978,0.736c-0.338,0.166-0.689,0.248-1.054,0.248
		c-0.575,0-1.034-0.174-1.378-0.52c-0.342-0.348-0.514-0.814-0.514-1.404c0-0.389,0.08-0.732,0.241-1.033s0.381-0.535,0.66-0.705
		s0.702-0.295,1.27-0.375c0.762-0.111,1.32-0.244,1.676-0.4l0.007-0.291c0-0.461-0.083-0.785-0.248-0.971
		c-0.232-0.271-0.59-0.406-1.072-0.406c-0.437,0-0.762,0.09-0.979,0.271c-0.215,0.18-0.374,0.52-0.476,1.016l-0.921-0.152
		c0.132-0.723,0.397-1.25,0.797-1.58c0.4-0.33,0.973-0.494,1.717-0.494c0.58,0,1.035,0.109,1.365,0.326
		c0.33,0.219,0.539,0.488,0.625,0.809c0.087,0.322,0.131,0.793,0.131,1.41v1.523c0,1.066,0.02,1.738,0.06,2.016
		s0.12,0.547,0.238,0.809h-0.978C457.83,83.714,457.768,83.437,457.737,83.115z M457.661,80.564c-0.343,0.17-0.853,0.312-1.53,0.432
		c-0.393,0.068-0.668,0.145-0.824,0.232c-0.157,0.086-0.279,0.209-0.365,0.367c-0.087,0.158-0.131,0.342-0.131,0.549
		c0,0.322,0.1,0.58,0.299,0.771c0.199,0.193,0.475,0.289,0.825,0.289c0.335,0,0.638-0.086,0.911-0.26
		c0.272-0.174,0.477-0.406,0.612-0.695c0.136-0.291,0.203-0.713,0.203-1.268V80.564z"/>
	<path fill="#454545" d="M462.148,82.925l0.127,1.01c-0.258,0.066-0.49,0.102-0.697,0.102c-0.326,0-0.589-0.064-0.787-0.193
		c-0.199-0.129-0.336-0.307-0.41-0.531s-0.111-0.67-0.111-1.34v-3.877h-0.686v-0.889h0.686v-1.67l0.934-0.686v2.355h0.945v0.889
		h-0.945v3.941c0,0.363,0.027,0.6,0.082,0.705c0.081,0.152,0.23,0.229,0.451,0.229C461.842,82.97,461.979,82.955,462.148,82.925z"/>
	<path fill="#454545" d="M463.031,75.955v-1.312h0.934v1.312H463.031z M463.031,83.947v-6.74h0.934v6.74H463.031z"/>
	<path fill="#454545" d="M465.043,80.576c0-1.162,0.245-2.041,0.733-2.633c0.489-0.594,1.108-0.889,1.856-0.889
		c0.736,0,1.353,0.295,1.848,0.889c0.495,0.592,0.742,1.447,0.742,2.564c0,1.209-0.242,2.111-0.729,2.703
		c-0.487,0.594-1.106,0.889-1.86,0.889c-0.74,0-1.357-0.297-1.85-0.891C465.29,82.613,465.043,81.736,465.043,80.576z
		 M466.002,80.574c0,0.873,0.158,1.521,0.477,1.947c0.316,0.426,0.711,0.639,1.18,0.639c0.44,0,0.818-0.215,1.134-0.645
		s0.473-1.078,0.473-1.941c0-0.869-0.159-1.516-0.476-1.941c-0.318-0.426-0.711-0.639-1.182-0.639c-0.443,0-0.822,0.213-1.136,0.641
		C466.158,79.064,466.002,79.708,466.002,80.574z"/>
	<path fill="#454545" d="M471.328,83.947v-6.74h0.844v0.951c0.203-0.369,0.451-0.646,0.744-0.83
		c0.294-0.182,0.631-0.273,1.012-0.273c0.295,0,0.568,0.059,0.82,0.174c0.251,0.117,0.453,0.27,0.607,0.457
		c0.154,0.189,0.27,0.434,0.346,0.732c0.076,0.301,0.114,0.762,0.114,1.385v4.145h-0.933v-4.104c0-0.496-0.043-0.859-0.127-1.088
		c-0.085-0.229-0.217-0.406-0.397-0.531c-0.18-0.125-0.388-0.188-0.625-0.188c-0.448,0-0.806,0.168-1.073,0.504
		c-0.266,0.334-0.399,0.908-0.399,1.721v3.686H471.328z"/>
</g>
<ellipse fill="none" stroke="#454545" stroke-width="5" stroke-miterlimit="10" cx="435.791" cy="59.043" rx="60.179" ry="43.413"/>
<g enable-background="new    ">
	<path fill="#F15E22" d="M596.284,51.947h-4.612V31.643h7.774c5.627,0,7.339,3.944,7.339,6.7c0,2.872-1.566,4.932-3.742,6.005
		l3.568,7.6h-5.076l-3.191-6.816h-2.06V51.947z M602.144,38.343c0-0.841-0.464-2.407-2.552-2.407h-3.308v4.844h3.423
		C601.68,40.722,602.144,39.098,602.144,38.343z"/>
	<path fill="#F15E22" d="M615.772,44.086v3.539h9.397v4.322h-14.039V31.643h14.039v4.322h-9.397v3.8h7.339v4.321H615.772z"/>
	<path fill="#F15E22" d="M643.789,38.401c-1.16-1.393-3.336-2.669-5.047-2.669c-4.699,0-5.367,4.525-5.367,6.033
		c0,1.509,0.668,6.005,5.396,6.005c1.798,0,3.916-1.132,5.309-2.408l2.669,3.191c-2.205,2.204-4.758,3.654-8.006,3.654
		c-7.717,0-10.096-6.091-10.096-10.442c0-4.234,2.379-10.413,10.096-10.413c3.48,0,5.975,1.595,8.15,4.061L643.789,38.401z"/>
</g>
<g enable-background="new    ">
	<path fill="#F15E22" d="M609.184,69.947l-2.033-9.305h1.033l1.163,6.1c0.122,0.627,0.231,1.262,0.323,1.904l0.344-1.721
		l1.451-6.283h1.227l1.088,4.709c0.266,1.146,0.465,2.246,0.596,3.295c0.097-0.605,0.222-1.279,0.375-2.025l1.2-5.979h1.016
		l-2.097,9.305h-0.971l-1.613-7.09l-0.24-1.092c-0.072,0.406-0.146,0.77-0.223,1.092l-1.619,7.09H609.184z"/>
	<path fill="#F15E22" d="M617.488,67.484l0.933-0.152c0.194,1.223,0.688,1.834,1.481,1.834c0.429,0,0.8-0.18,1.113-0.543
		c0.314-0.361,0.471-0.832,0.471-1.408c0-0.543-0.144-0.979-0.432-1.311c-0.287-0.33-0.641-0.496-1.06-0.496
		c-0.178,0-0.397,0.043-0.66,0.127l0.108-1.002l0.146,0.012c0.463,0,0.838-0.141,1.127-0.424s0.434-0.66,0.434-1.133
		c0-0.436-0.121-0.785-0.363-1.049c-0.241-0.264-0.536-0.396-0.884-0.396c-0.36,0-0.665,0.139-0.913,0.416s-0.406,0.697-0.475,1.26
		l-0.933-0.203c0.118-0.795,0.386-1.396,0.8-1.803s0.916-0.609,1.504-0.609c0.618,0,1.143,0.229,1.574,0.686
		s0.648,1.031,0.648,1.725c0,0.424-0.092,0.799-0.275,1.123c-0.183,0.326-0.438,0.582-0.767,0.768
		c0.304,0.086,0.554,0.225,0.753,0.42c0.197,0.193,0.357,0.453,0.48,0.779c0.121,0.326,0.183,0.689,0.183,1.092
		c0,0.854-0.252,1.553-0.755,2.096c-0.504,0.543-1.107,0.814-1.81,0.814c-0.651,0-1.204-0.236-1.657-0.711
		C617.81,68.921,617.551,68.285,617.488,67.484z"/>
	<path fill="#F15E22" d="M629.23,66.685l1.016,0.311c-0.224,1.045-0.616,1.824-1.177,2.34c-0.562,0.514-1.243,0.77-2.048,0.77
		c-0.706,0-1.311-0.172-1.812-0.518c-0.502-0.344-0.912-0.898-1.231-1.66c-0.32-0.762-0.479-1.662-0.479-2.699
		c0-1.025,0.159-1.893,0.479-2.602s0.753-1.244,1.299-1.607c0.547-0.361,1.157-0.543,1.83-0.543c0.738,0,1.371,0.23,1.9,0.688
		c0.529,0.459,0.9,1.131,1.111,2.018l-0.99,0.285c-0.338-1.291-1.019-1.936-2.04-1.936c-0.509,0-0.949,0.129-1.322,0.391
		c-0.372,0.26-0.671,0.666-0.894,1.217c-0.222,0.551-0.333,1.246-0.333,2.09c0,1.275,0.224,2.23,0.673,2.867
		c0.449,0.639,1.045,0.957,1.79,0.957c0.55,0,1.025-0.195,1.425-0.588C628.828,68.074,629.096,67.48,629.23,66.685z"/>
</g>
<g enable-background="new    ">
	<path fill="#F15E22" d="M577.889,83.947v-9.305h3.384c0.706,0,1.229,0.086,1.564,0.26c0.337,0.174,0.612,0.461,0.829,0.865
		c0.215,0.404,0.323,0.873,0.323,1.406c0,0.701-0.183,1.27-0.549,1.705s-0.898,0.713-1.597,0.832c0.283,0.17,0.5,0.342,0.647,0.518
		c0.3,0.355,0.565,0.75,0.794,1.186l1.332,2.533h-1.27l-1.018-1.934c-0.395-0.758-0.691-1.268-0.893-1.531
		c-0.2-0.262-0.395-0.439-0.583-0.529c-0.188-0.092-0.451-0.139-0.79-0.139h-1.166v4.133H577.889z M578.898,78.748h2.171
		c0.474,0,0.833-0.057,1.079-0.17c0.246-0.115,0.439-0.295,0.584-0.541c0.145-0.244,0.216-0.529,0.216-0.855
		c0-0.471-0.138-0.84-0.413-1.107c-0.274-0.27-0.684-0.404-1.225-0.404h-2.412V78.748z"/>
	<path fill="#F15E22" d="M589.232,81.777l0.965,0.145c-0.16,0.721-0.451,1.264-0.873,1.629c-0.421,0.367-0.942,0.549-1.564,0.549
		c-0.783,0-1.416-0.297-1.901-0.891c-0.484-0.596-0.727-1.453-0.727-2.574c0-1.164,0.244-2.053,0.733-2.664
		c0.488-0.611,1.107-0.916,1.856-0.916c0.716,0,1.312,0.301,1.79,0.9c0.479,0.602,0.717,1.471,0.717,2.609l-0.006,0.305h-4.126
		c0.038,0.758,0.214,1.328,0.526,1.713c0.313,0.387,0.694,0.578,1.143,0.578C588.469,83.16,588.957,82.699,589.232,81.777z
		 M586.154,79.929h3.084c-0.042-0.584-0.166-1.02-0.374-1.309c-0.3-0.418-0.684-0.627-1.149-0.627c-0.418,0-0.775,0.174-1.072,0.523
		S586.184,79.337,586.154,79.929z"/>
	<path fill="#F15E22" d="M595.002,81.478l0.921,0.146c-0.106,0.803-0.371,1.418-0.797,1.84c-0.425,0.424-0.937,0.635-1.532,0.635
		c-0.725,0-1.32-0.297-1.787-0.891c-0.468-0.596-0.701-1.475-0.701-2.639c0-1.172,0.235-2.051,0.707-2.637
		c0.473-0.586,1.078-0.879,1.818-0.879c0.572,0,1.053,0.178,1.444,0.533s0.643,0.889,0.753,1.6l-0.908,0.164
		c-0.089-0.455-0.243-0.795-0.463-1.02c-0.221-0.227-0.484-0.338-0.794-0.338c-0.462,0-0.843,0.203-1.146,0.611
		s-0.454,1.057-0.454,1.945c0,0.92,0.146,1.584,0.435,1.994c0.29,0.41,0.662,0.615,1.114,0.615c0.355,0,0.659-0.137,0.911-0.408
		C594.775,82.478,594.935,82.054,595.002,81.478z"/>
	<path fill="#F15E22" d="M596.361,80.576c0-1.162,0.244-2.041,0.732-2.633c0.489-0.594,1.107-0.889,1.857-0.889
		c0.736,0,1.352,0.295,1.847,0.889c0.495,0.592,0.743,1.447,0.743,2.564c0,1.209-0.244,2.111-0.73,2.703
		c-0.486,0.594-1.106,0.889-1.859,0.889c-0.741,0-1.357-0.297-1.851-0.891C596.607,82.613,596.361,81.736,596.361,80.576z
		 M597.319,80.574c0,0.873,0.159,1.521,0.476,1.947c0.318,0.426,0.711,0.639,1.182,0.639c0.439,0,0.817-0.215,1.133-0.645
		c0.314-0.43,0.473-1.078,0.473-1.941c0-0.869-0.158-1.516-0.477-1.941c-0.316-0.426-0.711-0.639-1.18-0.639
		c-0.445,0-0.824,0.213-1.137,0.641C597.477,79.064,597.319,79.708,597.319,80.574z"/>
	<path fill="#F15E22" d="M602.651,83.947v-6.74h0.838v0.939c0.187-0.35,0.425-0.619,0.716-0.809
		c0.292-0.189,0.611-0.283,0.957-0.283c0.389,0,0.717,0.1,0.985,0.299c0.269,0.201,0.46,0.492,0.573,0.875
		c0.221-0.391,0.475-0.686,0.762-0.881s0.604-0.293,0.952-0.293c0.53,0,0.949,0.18,1.255,0.539s0.459,0.936,0.459,1.727v4.627
		h-0.934v-4.25c0-0.484-0.035-0.826-0.105-1.027s-0.184-0.355-0.342-0.467c-0.156-0.109-0.334-0.166-0.529-0.166
		c-0.404,0-0.734,0.16-0.989,0.48s-0.383,0.822-0.383,1.51v3.92h-0.933v-4.385c0-0.559-0.086-0.953-0.258-1.182
		c-0.171-0.229-0.407-0.344-0.707-0.344c-0.428,0-0.766,0.174-1.013,0.52c-0.248,0.344-0.372,0.975-0.372,1.891v3.5H602.651z"/>
	<path fill="#F15E22" d="M611.531,83.947v-6.74h0.838v0.939c0.187-0.35,0.425-0.619,0.717-0.809c0.291-0.189,0.61-0.283,0.957-0.283
		c0.389,0,0.717,0.1,0.984,0.299c0.27,0.201,0.46,0.492,0.574,0.875c0.221-0.391,0.475-0.686,0.762-0.881
		c0.286-0.195,0.604-0.293,0.951-0.293c0.531,0,0.949,0.18,1.256,0.539c0.305,0.359,0.458,0.936,0.458,1.727v4.627h-0.933v-4.25
		c0-0.484-0.035-0.826-0.105-1.027s-0.185-0.355-0.342-0.467c-0.157-0.109-0.334-0.166-0.529-0.166c-0.404,0-0.734,0.16-0.99,0.48
		c-0.255,0.32-0.383,0.822-0.383,1.51v3.92h-0.933v-4.385c0-0.559-0.085-0.953-0.257-1.182s-0.408-0.344-0.708-0.344
		c-0.427,0-0.765,0.174-1.013,0.52c-0.248,0.344-0.371,0.975-0.371,1.891v3.5H611.531z"/>
	<path fill="#F15E22" d="M624.183,81.777l0.965,0.145c-0.161,0.721-0.452,1.264-0.873,1.629c-0.421,0.367-0.942,0.549-1.564,0.549
		c-0.782,0-1.417-0.297-1.901-0.891c-0.484-0.596-0.727-1.453-0.727-2.574c0-1.164,0.244-2.053,0.733-2.664
		c0.488-0.611,1.107-0.916,1.856-0.916c0.715,0,1.312,0.301,1.79,0.9c0.478,0.602,0.718,1.471,0.718,2.609l-0.007,0.305h-4.126
		c0.038,0.758,0.214,1.328,0.527,1.713c0.312,0.387,0.693,0.578,1.143,0.578C623.419,83.16,623.908,82.699,624.183,81.777z
		 M621.104,79.929h3.086c-0.043-0.584-0.168-1.02-0.375-1.309c-0.301-0.418-0.684-0.627-1.148-0.627
		c-0.42,0-0.777,0.174-1.073,0.523S621.134,79.337,621.104,79.929z"/>
	<path fill="#F15E22" d="M626.334,83.947v-6.74h0.845v0.951c0.202-0.369,0.451-0.646,0.745-0.83c0.293-0.182,0.63-0.273,1.01-0.273
		c0.296,0,0.569,0.059,0.82,0.174c0.252,0.117,0.455,0.27,0.609,0.457c0.154,0.189,0.27,0.434,0.345,0.732
		c0.076,0.301,0.114,0.762,0.114,1.385v4.145h-0.934v-4.104c0-0.496-0.042-0.859-0.127-1.088c-0.084-0.229-0.217-0.406-0.396-0.531
		s-0.389-0.188-0.625-0.188c-0.449,0-0.807,0.168-1.072,0.504c-0.268,0.334-0.4,0.908-0.4,1.721v3.686H626.334z"/>
	<path fill="#F15E22" d="M635.844,83.947v-0.85c-0.17,0.326-0.388,0.574-0.654,0.746c-0.267,0.17-0.555,0.256-0.863,0.256
		c-0.652,0-1.216-0.307-1.691-0.924c-0.477-0.615-0.715-1.482-0.715-2.6c0-0.766,0.105-1.414,0.317-1.947
		c0.211-0.533,0.493-0.93,0.846-1.188s0.745-0.387,1.176-0.387c0.309,0,0.595,0.08,0.858,0.244c0.264,0.162,0.482,0.391,0.656,0.682
		v-3.338h0.945v9.305H635.844z M632.879,80.583c0,0.871,0.151,1.52,0.454,1.941c0.303,0.424,0.655,0.635,1.058,0.635
		c0.398,0,0.743-0.203,1.035-0.609c0.293-0.406,0.438-1.02,0.438-1.84c0-0.943-0.146-1.633-0.438-2.066
		c-0.292-0.434-0.66-0.65-1.105-0.65c-0.394,0-0.732,0.207-1.016,0.625C633.021,79.035,632.879,79.691,632.879,80.583z"/>
	<path fill="#F15E22" d="M641.791,83.115c-0.312,0.326-0.639,0.572-0.978,0.736c-0.339,0.166-0.69,0.248-1.054,0.248
		c-0.576,0-1.035-0.174-1.377-0.52c-0.344-0.348-0.515-0.814-0.515-1.404c0-0.389,0.081-0.732,0.241-1.033s0.381-0.535,0.66-0.705
		s0.703-0.295,1.27-0.375c0.762-0.111,1.32-0.244,1.676-0.4l0.006-0.291c0-0.461-0.082-0.785-0.247-0.971
		c-0.233-0.271-0.591-0.406-1.073-0.406c-0.436,0-0.762,0.09-0.977,0.271c-0.217,0.18-0.375,0.52-0.477,1.016l-0.92-0.152
		c0.131-0.723,0.396-1.25,0.796-1.58c0.4-0.33,0.973-0.494,1.718-0.494c0.579,0,1.034,0.109,1.364,0.326
		c0.33,0.219,0.538,0.488,0.625,0.809c0.087,0.322,0.13,0.793,0.13,1.41v1.523c0,1.066,0.021,1.738,0.061,2.016
		c0.041,0.277,0.119,0.547,0.238,0.809h-0.978C641.885,83.714,641.82,83.437,641.791,83.115z M641.715,80.564
		c-0.343,0.17-0.853,0.312-1.529,0.432c-0.395,0.068-0.669,0.145-0.826,0.232c-0.156,0.086-0.277,0.209-0.364,0.367
		s-0.13,0.342-0.13,0.549c0,0.322,0.1,0.58,0.298,0.771c0.198,0.193,0.474,0.289,0.825,0.289c0.334,0,0.638-0.086,0.911-0.26
		c0.272-0.174,0.478-0.406,0.612-0.695c0.135-0.291,0.203-0.713,0.203-1.268V80.564z"/>
	<path fill="#F15E22" d="M646.203,82.925l0.127,1.01c-0.259,0.066-0.491,0.102-0.699,0.102c-0.325,0-0.588-0.064-0.787-0.193
		c-0.198-0.129-0.335-0.307-0.409-0.531c-0.073-0.225-0.11-0.67-0.11-1.34v-3.877h-0.686v-0.889h0.686v-1.67l0.933-0.686v2.355
		h0.946v0.889h-0.946v3.941c0,0.363,0.027,0.6,0.083,0.705c0.08,0.152,0.23,0.229,0.45,0.229
		C645.896,82.97,646.033,82.955,646.203,82.925z"/>
	<path fill="#F15E22" d="M647.085,75.955v-1.312h0.933v1.312H647.085z M647.085,83.947v-6.74h0.933v6.74H647.085z"/>
	<path fill="#F15E22" d="M649.098,80.576c0-1.162,0.244-2.041,0.732-2.633c0.489-0.594,1.107-0.889,1.857-0.889
		c0.736,0,1.352,0.295,1.847,0.889c0.495,0.592,0.743,1.447,0.743,2.564c0,1.209-0.244,2.111-0.73,2.703
		c-0.486,0.594-1.106,0.889-1.859,0.889c-0.741,0-1.357-0.297-1.851-0.891C649.344,82.613,649.098,81.736,649.098,80.576z
		 M650.056,80.574c0,0.873,0.159,1.521,0.476,1.947c0.318,0.426,0.711,0.639,1.182,0.639c0.439,0,0.817-0.215,1.133-0.645
		c0.314-0.43,0.473-1.078,0.473-1.941c0-0.869-0.158-1.516-0.477-1.941c-0.316-0.426-0.711-0.639-1.18-0.639
		c-0.445,0-0.824,0.213-1.137,0.641C650.213,79.064,650.056,79.708,650.056,80.574z"/>
	<path fill="#F15E22" d="M655.381,83.947v-6.74h0.845v0.951c0.202-0.369,0.451-0.646,0.745-0.83c0.293-0.182,0.63-0.273,1.01-0.273
		c0.296,0,0.569,0.059,0.82,0.174c0.252,0.117,0.455,0.27,0.609,0.457c0.154,0.189,0.27,0.434,0.345,0.732
		c0.076,0.301,0.114,0.762,0.114,1.385v4.145h-0.934v-4.104c0-0.496-0.042-0.859-0.127-1.088c-0.084-0.229-0.217-0.406-0.396-0.531
		s-0.389-0.188-0.625-0.188c-0.449,0-0.807,0.168-1.072,0.504c-0.268,0.334-0.4,0.908-0.4,1.721v3.686H655.381z"/>
</g>
<ellipse fill="none" stroke="#F15E22" stroke-width="5" stroke-miterlimit="10" cx="619.844" cy="59.043" rx="60.181" ry="43.413"/>
<g>
	<g>
		
			<line fill="none" stroke="#454545" stroke-width="3" stroke-linecap="round" stroke-miterlimit="10" x1="144.251" y1="59.042" x2="174.826" y2="59.042"/>
		<g>
			<polygon fill="#454545" points="172.418,67.271 186.667,59.042 172.418,50.815 			"/>
		</g>
	</g>
</g>
<g>
	<g>
		
			<line fill="none" stroke="#454545" stroke-width="3" stroke-linecap="round" stroke-miterlimit="10" x1="324.585" y1="59.042" x2="355.159" y2="59.042"/>
		<g>
			<polygon fill="#454545" points="352.752,67.271 367,59.042 352.752,50.815 			"/>
		</g>
	</g>
</g>
<g>
	<g>
		
			<line fill="none" stroke="#454545" stroke-width="3" stroke-linecap="round" stroke-miterlimit="10" x1="508.97" y1="59.042" x2="539.544" y2="59.042"/>
		<g>
			<polygon fill="#454545" points="537.137,67.271 551.385,59.042 537.137,50.815 			"/>
		</g>
	</g>
</g>
</svg>
